<?xml version="1.0" encoding="UTF-8" standalone="no"?>
<!-- Created with Inkscape (http://www.inkscape.org/) -->

<svg
   width="247.93459mm"
   height="58.648617mm"
   viewBox="0 0 247.93458 58.648617"
   version="1.1"
   id="svg1"
   sodipodi:docname="bb-compactification.svg"
   inkscape:version="1.3.2 (091e20ef0f, 2023-11-25, custom)"
   xmlns:inkscape="http://www.inkscape.org/namespaces/inkscape"
   xmlns:sodipodi="http://sodipodi.sourceforge.net/DTD/sodipodi-0.dtd"
   xmlns="http://www.w3.org/2000/svg"
   xmlns:svg="http://www.w3.org/2000/svg">
  <sodipodi:namedview
     id="namedview1"
     pagecolor="#ffffff"
     bordercolor="#000000"
     borderopacity="0.25"
     inkscape:showpageshadow="2"
     inkscape:pageopacity="0.0"
     inkscape:pagecheckerboard="0"
     inkscape:deskcolor="#d1d1d1"
     inkscape:document-units="mm"
     inkscape:zoom="0.87360203"
     inkscape:cx="235.23297"
     inkscape:cy="300.48007"
     inkscape:window-width="1896"
     inkscape:window-height="1123"
     inkscape:window-x="0"
     inkscape:window-y="0"
     inkscape:window-maximized="0"
     inkscape:current-layer="layer1" />
  <defs
     id="defs1" />
  <g
     inkscape:label="Layer 1"
     inkscape:groupmode="layer"
     id="layer1"
     transform="translate(-16.027925,-174.29944)">
    <path
       style="fill:none;fill-opacity:0.082958;stroke:#000000;stroke-width:0.499999;stroke-dasharray:0.499999, 0.999998;stroke-dashoffset:0"
       d="m 21.370175,204.60865 c 0,0 48.172264,-47.04065 77.560623,-23.43168 l 32.992762,26.50455 c -0.357,4.80235 -59.81531,55.6011 -110.553385,-3.07287 z"
       id="path1"
       sodipodi:nodetypes="cscc" />
    <path
       style="fill:none;fill-opacity:0.082958;stroke:#000000;stroke-width:0.499999;stroke-dasharray:none"
       d="m 81.629163,191.44658 c 0,0 -1.758105,1.53324 -3.380112,4.15419 -2.248559,3.63337 -4.235566,9.35707 -0.914621,15.98413 l 2.166123,4.32258"
       id="path2"
       sodipodi:nodetypes="cssc" />
    <path
       style="fill:none;fill-opacity:0.082958;stroke:#000000;stroke-width:0.499999;stroke-dasharray:none"
       d="m 77.334429,211.5849 c 0,0 6.080339,-4.68265 2.634551,-12.22129 l -1.719931,-3.76284"
       id="path3"
       sodipodi:nodetypes="csc" />
    <path
       style="fill:#1a1a1a;fill-opacity:0.2;stroke:none;stroke-width:0.276159;stroke-dasharray:none"
       d="m 79.014078,174.86749 c -8.106735,0.14153 -15.999788,2.67461 -23.266325,6.13649 -11.361695,5.34245 -21.624134,12.76607 -31.067728,20.98362 -0.975678,0.8778 -2.008748,1.73829 -2.922662,2.65577 5.861909,6.5244 12.306053,12.62133 19.761281,17.30112 10.495848,6.72013 22.917089,10.71558 35.443273,10.33878 9.234604,0.0575 18.381908,-2.1129 26.932273,-5.50521 9.00868,-3.68446 17.53806,-8.74387 24.71343,-15.35317 1.1174,-1.08207 2.26595,-2.21313 2.98433,-3.59712 -10.39259,-8.51551 -20.94312,-16.83822 -31.45426,-25.20713 -2.104396,-1.68693 -4.188707,-3.43997 -6.66952,-4.55779 -4.413673,-2.35394 -9.490654,-3.22645 -14.454092,-3.19536 z m 2.497685,16.43604 c 0.630698,0.20035 -0.150727,0.78157 -0.34621,1.00582 -0.92112,1.06732 -1.919176,2.12189 -2.53793,3.39874 1.283189,2.9097 3.01966,5.89725 2.59644,9.203 -0.210351,2.62196 -1.653354,4.97966 -3.489227,6.7935 0.602002,1.39324 1.542968,2.73584 1.875478,4.20163 -0.404159,0.39843 -0.549913,-0.51412 -0.764918,-0.72267 -1.550504,-3.06088 -3.38859,-6.16696 -3.483899,-9.69195 -0.320984,-4.26136 1.291217,-8.45438 3.870587,-11.79745 0.689724,-0.82227 1.357347,-1.83964 2.279679,-2.39062 z"
       id="path4" />
    <ellipse
       style="fill:#808080;fill-opacity:0.082958;stroke:#000000;stroke-width:0.296004;stroke-dasharray:0.163489, 0.326978;stroke-dashoffset:0"
       id="path5"
       cx="18.966221"
       cy="204.64337"
       rx="2.7911415"
       ry="2.8086503" />
    <ellipse
       style="fill:#808080;fill-opacity:0.082958;stroke:#000000;stroke-width:0.296004;stroke-dasharray:0.163489, 0.326978;stroke-dashoffset:0"
       id="path5-5"
       cx="134.38309"
       cy="207.82777"
       rx="2.7911415"
       ry="2.8086503" />
    <path
       style="fill:none;fill-opacity:0.082958;stroke:#000000;stroke-width:0.499999;stroke-dasharray:0.499999, 0.999998;stroke-dashoffset:0"
       d="m 148.0105,204.64097 c 0,0 48.17227,-47.04065 77.56063,-23.43168 l 32.99276,26.50455 c -0.357,4.80235 -59.81531,55.6011 -110.55339,-3.07287 z"
       id="path1-9"
       sodipodi:nodetypes="cscc" />
    <path
       style="fill:none;fill-opacity:0.082958;stroke:#000000;stroke-width:0.499999;stroke-dasharray:none"
       d="m 208.26949,191.4789 c 0,0 -1.7581,1.53324 -3.38011,4.15419 -2.24856,3.63337 -4.23557,9.35707 -0.91462,15.98413 l 2.16612,4.32258"
       id="path2-1"
       sodipodi:nodetypes="cssc" />
    <path
       style="fill:none;fill-opacity:0.082958;stroke:#000000;stroke-width:0.499999;stroke-dasharray:none"
       d="m 203.97476,211.61722 c 0,0 6.08034,-4.68265 2.63455,-12.22129 l -1.71993,-3.76284"
       id="path3-2"
       sodipodi:nodetypes="csc" />
    <path
       style="fill:#1a1a1a;fill-opacity:0.2;stroke:none;stroke-width:0.276159;stroke-dasharray:none"
       d="m 205.65441,174.89981 c -8.10674,0.14154 -15.99979,2.67462 -23.26633,6.13649 -11.36169,5.34245 -21.62413,12.76607 -31.06772,20.98362 -0.97568,0.8778 -2.00875,1.73829 -2.92267,2.65577 5.86191,6.5244 12.30606,12.62133 19.76128,17.30112 10.49585,6.72013 22.91709,10.71558 35.44328,10.33878 9.2346,0.0575 18.38191,-2.1129 26.93227,-5.50521 9.00868,-3.68446 17.53806,-8.74387 24.71343,-15.35317 1.1174,-1.08207 2.26595,-2.21313 2.98433,-3.59712 -10.39259,-8.51551 -20.94312,-16.83822 -31.45426,-25.20713 -2.1044,-1.68692 -4.18871,-3.43996 -6.66952,-4.55779 -4.41367,-2.35393 -9.49065,-3.22645 -14.45409,-3.19536 z m 2.49768,16.43605 c 0.6307,0.20034 -0.15072,0.78156 -0.34621,1.00581 -0.92112,1.06732 -1.91917,2.12189 -2.53793,3.39875 1.28319,2.90969 3.01966,5.89725 2.59644,9.20299 -0.21035,2.62196 -1.65335,4.97966 -3.48922,6.79351 0.602,1.39323 1.54296,2.73583 1.87547,4.20163 -0.40415,0.39842 -0.54991,-0.51413 -0.76491,-0.72268 -1.55051,-3.06088 -3.38859,-6.16696 -3.4839,-9.69195 -0.32099,-4.26136 1.29121,-8.45437 3.87058,-11.79745 0.68973,-0.82227 1.35735,-1.83964 2.27968,-2.39061 z"
       id="path4-7" />
    <ellipse
       style="fill:#808080;fill-opacity:0.082958;stroke:#000000;stroke-width:0.296004;stroke-dasharray:0.163489, 0.326978;stroke-dashoffset:0"
       id="path5-0"
       cx="145.60655"
       cy="204.67569"
       rx="2.7911415"
       ry="2.8086503" />
    <ellipse
       style="fill:#808080;fill-opacity:0.082958;stroke:#000000;stroke-width:0.296004;stroke-dasharray:0.163489, 0.326978;stroke-dashoffset:0"
       id="path5-5-9"
       cx="261.02341"
       cy="207.86009"
       rx="2.7911415"
       ry="2.8086503" />
  </g>
</svg>
