<?xml version="1.0" encoding="UTF-8" standalone="no"?>
<!-- Created with Inkscape (http://www.inkscape.org/) -->

<svg
   width="106.46905mm"
   height="125.26595mm"
   viewBox="0 0 106.46905 125.26595"
   version="1.1"
   id="svg1"
   inkscape:version="1.3.2 (091e20ef0f, 2023-11-25, custom)"
   sodipodi:docname="Hyperbolic Cone.svg"
   xmlns:inkscape="http://www.inkscape.org/namespaces/inkscape"
   xmlns:sodipodi="http://sodipodi.sourceforge.net/DTD/sodipodi-0.dtd"
   xmlns="http://www.w3.org/2000/svg"
   xmlns:svg="http://www.w3.org/2000/svg">
  <sodipodi:namedview
     id="namedview1"
     pagecolor="#ffffff"
     bordercolor="#000000"
     borderopacity="0.25"
     inkscape:showpageshadow="2"
     inkscape:pageopacity="0.0"
     inkscape:pagecheckerboard="0"
     inkscape:deskcolor="#d1d1d1"
     inkscape:document-units="mm"
     inkscape:zoom="3.0099974"
     inkscape:cx="204.98357"
     inkscape:cy="118.27253"
     inkscape:window-width="1920"
     inkscape:window-height="1200"
     inkscape:window-x="0"
     inkscape:window-y="0"
     inkscape:window-maximized="0"
     inkscape:current-layer="layer1" />
  <defs
     id="defs1">
    <marker
       style="overflow:visible"
       id="Triangle"
       refX="0"
       refY="0"
       orient="auto-start-reverse"
       inkscape:stockid="Triangle arrow"
       markerWidth="1"
       markerHeight="1"
       viewBox="0 0 1 1"
       inkscape:isstock="true"
       inkscape:collect="always"
       preserveAspectRatio="xMidYMid">
      <path
         transform="scale(0.5)"
         style="fill:context-stroke;fill-rule:evenodd;stroke:context-stroke;stroke-width:1pt"
         d="M 5.77,0 -2.88,5 V -5 Z"
         id="path135" />
    </marker>
    <marker
       style="overflow:visible"
       id="Triangle-9"
       refX="0"
       refY="0"
       orient="auto-start-reverse"
       inkscape:stockid="Triangle arrow"
       markerWidth="1"
       markerHeight="1"
       viewBox="0 0 1 1"
       inkscape:isstock="true"
       inkscape:collect="always"
       preserveAspectRatio="xMidYMid">
      <path
         transform="scale(0.5)"
         style="fill:context-stroke;fill-rule:evenodd;stroke:context-stroke;stroke-width:1pt"
         d="M 5.77,0 -2.88,5 V -5 Z"
         id="path135-1" />
    </marker>
    <marker
       style="overflow:visible"
       id="Triangle-3"
       refX="0"
       refY="0"
       orient="auto-start-reverse"
       inkscape:stockid="Triangle arrow"
       markerWidth="1"
       markerHeight="1"
       viewBox="0 0 1 1"
       inkscape:isstock="true"
       inkscape:collect="always"
       preserveAspectRatio="xMidYMid">
      <path
         transform="scale(0.5)"
         style="fill:context-stroke;fill-rule:evenodd;stroke:context-stroke;stroke-width:1pt"
         d="M 5.77,0 -2.88,5 V -5 Z"
         id="path135-6" />
    </marker>
    <marker
       style="overflow:visible"
       id="Triangle-9-1"
       refX="0"
       refY="0"
       orient="auto-start-reverse"
       inkscape:stockid="Triangle arrow"
       markerWidth="1"
       markerHeight="1"
       viewBox="0 0 1 1"
       inkscape:isstock="true"
       inkscape:collect="always"
       preserveAspectRatio="xMidYMid">
      <path
         transform="scale(0.5)"
         style="fill:context-stroke;fill-rule:evenodd;stroke:context-stroke;stroke-width:1pt"
         d="M 5.77,0 -2.88,5 V -5 Z"
         id="path135-1-2" />
    </marker>
    <marker
       style="overflow:visible"
       id="Triangle-9-1-3"
       refX="0"
       refY="0"
       orient="auto-start-reverse"
       inkscape:stockid="Triangle arrow"
       markerWidth="1"
       markerHeight="1"
       viewBox="0 0 1 1"
       inkscape:isstock="true"
       inkscape:collect="always"
       preserveAspectRatio="xMidYMid">
      <path
         transform="scale(0.5)"
         style="fill:context-stroke;fill-rule:evenodd;stroke:context-stroke;stroke-width:1pt"
         d="M 5.77,0 -2.88,5 V -5 Z"
         id="path135-1-2-6" />
    </marker>
    <marker
       style="overflow:visible"
       id="Triangle-9-1-1"
       refX="0"
       refY="0"
       orient="auto-start-reverse"
       inkscape:stockid="Triangle arrow"
       markerWidth="1"
       markerHeight="1"
       viewBox="0 0 1 1"
       inkscape:isstock="true"
       inkscape:collect="always"
       preserveAspectRatio="xMidYMid">
      <path
         transform="scale(0.5)"
         style="fill:context-stroke;fill-rule:evenodd;stroke:context-stroke;stroke-width:1pt"
         d="M 5.77,0 -2.88,5 V -5 Z"
         id="path135-1-2-5" />
    </marker>
    <marker
       style="overflow:visible"
       id="Triangle-9-1-5"
       refX="0"
       refY="0"
       orient="auto-start-reverse"
       inkscape:stockid="Triangle arrow"
       markerWidth="1"
       markerHeight="1"
       viewBox="0 0 1 1"
       inkscape:isstock="true"
       inkscape:collect="always"
       preserveAspectRatio="xMidYMid">
      <path
         transform="scale(0.5)"
         style="fill:context-stroke;fill-rule:evenodd;stroke:context-stroke;stroke-width:1pt"
         d="M 5.77,0 -2.88,5 V -5 Z"
         id="path135-1-2-69" />
    </marker>
  </defs>
  <g
     inkscape:label="Layer 1"
     inkscape:groupmode="layer"
     id="layer1"
     transform="translate(-46.1372, -37.1644)">
    <ellipse
       style="fill:none;fill-opacity:1;stroke:#000000;stroke-width:0.386001;stroke-dasharray:none"
       id="path1"
       cx="99.371758"
       cy="49.91077"
       rx="53.041523"
       ry="12.553358" />
    <path
       style="fill:none;fill-opacity:1;stroke:#000000;stroke-width:0.386001;stroke-dasharray:none"
       d="M 46.536973,50.959371 C 97.860734,163.49108 97.53934,162.24857 97.53934,162.24857 L 152.30219,50.975321"
       id="path6"
       sodipodi:nodetypes="ccc" />
    <path
       style="fill:none;fill-opacity:1;stroke:#0000ff;stroke-width:0.386001;stroke-dasharray:none"
       d="m 70.2397,39.403235 c 0,0 17.645082,6.119216 25.572855,23.031658 0,0 21.603285,-22.777063 39.597225,-21.765163"
       id="path7"
       sodipodi:nodetypes="ccc" />
    <path
       style="fill:none;fill-opacity:1;stroke:#0000ff;stroke-width:0.386001;stroke-dasharray:none;stroke-opacity:1"
       d="m 70.275613,39.382044 c 0,0 33.681957,4.722347 64.674667,1.119478"
       id="path8"
       sodipodi:nodetypes="cc" />
    <path
       style="fill:none;fill-opacity:1;stroke:#0000ff;stroke-width:0.386001;stroke-dasharray:none"
       d="M 70.567481,39.368552 97.452097,162.0871 95.849276,62.403397"
       id="path9"
       sodipodi:nodetypes="ccc" />
    <path
       style="fill:none;fill-opacity:1;stroke:#0000ff;stroke-width:0.386001;stroke-dasharray:none"
       d="M 97.674807,161.99575 134.98194,40.548942"
       id="path10"
       sodipodi:nodetypes="cc" />
    <path
       style="fill:#0000ff;fill-opacity:0.210531;stroke:#0000ff;stroke-width:0.32478;stroke-dasharray:none;stroke-opacity:1"
       d="m 359.43158,228.47583 c -16.19896,-30.15939 -42.93515,-55.43456 -77.34261,-73.11614 -4.70148,-2.41604 -10.81134,-4.85164 -10.50128,-4.85839 0.31005,-0.007 6.57236,0.83763 10.84007,1.32236 28.58067,3.24615 64.83929,5.7511 98.6398,6.81458 17.89852,0.56314 64.22793,0.27983 76.93335,-0.47046 3.95915,-0.2338 9.93161,-0.54109 13.27213,-0.68285 l 6.07369,-0.25776 -4.94893,1.73927 c -13.73663,4.82765 -28.02154,11.81278 -42.5158,20.78966 -19.93186,12.34459 -43.86786,31.33935 -61.90596,49.12634 l -5.44317,5.36741 z"
       id="path27"
       transform="scale(0.26458333)"
       sodipodi:nodetypes="ssccssscssscs" />
    <path
       style="fill:#0000ff;fill-opacity:0.210531;stroke:#0000ff;stroke-width:0.32478;stroke-dasharray:none;stroke-opacity:1"
       d="m 345.07535,234.58974 c -11.04629,-0.42369 -22.97288,-1.12795 -33.96766,-2.0058 -8.63038,-0.68906 -25.2974,-2.41161 -25.52368,-2.63789 -0.30863,-0.30863 -17.81558,-78.92396 -17.61697,-79.12257 0.91688,-0.91688 22.86177,11.04073 33.01784,17.81425 25.19974,16.80678 46.122,39.62617 58.05189,63.31577 l 1.57153,3.12064 -3.26745,-0.0696 c -1.7971,-0.0383 -7.31658,-0.22494 -12.2655,-0.41476 z"
       id="path28"
       transform="scale(0.26458333)"
       sodipodi:nodetypes="sssssscsss" />
    <path
       style="fill:#0000ff;fill-opacity:0.210531;stroke:#0000ff;stroke-width:0.32478;stroke-dasharray:none;stroke-opacity:1"
       d="m 369.71545,229.89402 c 39.22042,-38.1145 83.524,-65.64957 117.52914,-73.04541 5.91683,-1.28687 21.37037,-2.7863 21.37037,-2.07354 0,0.193 -20.22058,66.68805 -21.62327,71.10775 -0.50103,1.57871 0.87101,1.30093 -18.64301,3.77434 -27.26076,3.4553 -60.11412,5.43105 -89.75559,5.39777 l -14.17193,-0.0159 z"
       id="path29"
       transform="scale(0.26458333)" />
    <path
       style="fill:#0000ff;fill-opacity:0.210531;stroke:#0000ff;stroke-width:0.32478;stroke-dasharray:none;stroke-opacity:1"
       d="m 369.16309,606.69375 c -0.012,-1.60841 -1.33586,-84.31176 -2.9419,-183.78524 -1.60604,-99.47348 -2.92114,-182.025 -2.92243,-183.44782 l -0.002,-2.58694 16.30897,-0.005 c 34.85724,-0.01 75.6239,-2.80782 101.76137,-6.98465 2.211,-0.35333 4.11747,-0.54494 4.23659,-0.42582 0.31067,0.31066 -114.6169,376.69306 -115.60004,378.5847 l -0.81838,1.57466 z"
       id="path30"
       transform="scale(0.26458333)" />
    <path
       style="fill:#0000ff;fill-opacity:0.210531;stroke:#0000ff;stroke-width:0.32478;stroke-dasharray:none;stroke-opacity:1"
       d="m 326.54285,417.37121 c -22.3151,-101.86179 -40.53507,-185.22882 -40.48883,-185.26006 0.0462,-0.0312 3.4246,0.30935 7.50747,0.75687 15.40014,1.68802 38.35581,3.19476 58.37487,3.83156 l 9.56043,0.30412 0.0182,7.4709 c 0.01,4.10899 1.30008,86.32758 2.8668,182.70798 1.56671,96.3804 2.82278,175.27192 2.79126,175.31449 -0.0315,0.0426 -18.31512,-83.26407 -40.63022,-185.12586 z"
       id="path31"
       transform="scale(0.26458333)" />
    <path
       style="fill:#999999;fill-opacity:0.210531;stroke:#0000ff;stroke-width:0.32478;stroke-dasharray:none;stroke-opacity:1"
       d="m 278.03985,229.15856 c -1.48468,-0.22446 -6.74854,-1.02251 -11.69747,-1.77343 -49.02367,-7.43864 -82.52152,-20.24985 -88.96804,-34.02574 -1.16576,-2.49118 -1.32305,-3.2598 -1.12163,-5.48107 0.27827,-3.0688 1.36357,-5.34882 3.93391,-8.26437 8.69842,-9.8667 31.69337,-19.12395 63.88558,-25.7189 10.14761,-2.07885 21.54171,-4.05704 21.80991,-3.78653 0.20267,0.20441 17.81016,79.01075 17.81016,79.73042 0,0.61249 -1.72455,-0.0866 -5.65242,-0.68036 z"
       id="path32"
       sodipodi:nodetypes="scssssssss"
       transform="scale(0.26458333)" />
    <path
       style="fill:#999999;fill-opacity:0.210531;stroke:#0000ff;stroke-width:0.32478;stroke-dasharray:none;stroke-opacity:1"
       d="m 380.16775,156.75312 c -19.96814,-0.61527 -46.98522,-2.1642 -66.36064,-3.80456 -9.10343,-0.77072 -33.69322,-3.20431 -37.60616,-3.7218 l -4.26952,-0.2649 4.98968,-0.6093 c 5.1904,-0.63381 22.63047,-2.69041 31.93707,-3.45982 23.61324,-1.9522 39.83278,-2.5856 66.36064,-2.5915 43.26572,-0.01 78.67777,2.24635 113.73456,7.94175 10.53407,1.71139 18.13284,2.73458 13.74872,2.74356 -0.91332,0.002 -7.22429,0.40385 -8.70897,0.63819 -3.27993,0.51772 -17.69097,1.63941 -29.01872,2.25868 -24.18967,1.32242 -58.64618,1.67577 -84.80666,0.8697 z"
       id="path33"
       sodipodi:nodetypes="ssscsscscsss"
       transform="scale(0.26458333)" />
    <path
       style="fill:#999999;fill-opacity:0.210531;stroke:#0000ff;stroke-width:0.32478;stroke-dasharray:none;stroke-opacity:1"
       d="m 488.93837,226.15808 c 1.17502,-4.27287 21.67383,-71.01528 21.87786,-71.23245 0.36264,-0.38599 11.09451,2.17153 20.06892,4.78264 27.99064,8.14391 43.95824,18.57777 44.05251,28.78564 0.0342,3.70887 -1.35923,6.42409 -5.33043,10.38641 -3.8435,3.8349 -7.29335,6.13593 -14.42734,9.62296 -13.30776,6.5047 -34.81719,12.74069 -58.26239,16.89139 -3.58798,0.6352 -6.89792,1.23712 -7.35542,1.33759 -0.60389,0.13261 -0.7748,-0.0247 -0.62371,-0.57418 z"
       id="path34"
       transform="scale(0.26458333)" />
    <path
       style="fill:#999999;fill-opacity:0.210531;stroke:#0000ff;stroke-width:0.32478;stroke-dasharray:none;stroke-opacity:1"
       d="m 347.99971,234.32715 c -19.8157,-0.83832 -35.0689,-1.86108 -49.71424,-3.33346 -13.01664,-1.30863 -12.29068,-1.13485 -12.7939,-3.06271 -1.28266,-4.91393 -16.56653,-75.81396 -16.39108,-76.03623 0.25538,-0.32354 12.9736,6.08119 19.96197,10.05258 25.16076,14.29849 46.24423,33.52424 60.95117,55.58061 3.44188,5.16187 9.6812,15.96075 9.68285,16.75887 6.5e-4,0.31422 -4.82923,0.33088 -11.69677,0.0403 z"
       id="path35"
       transform="scale(0.26458333)" />
    <path
       style="fill:#999999;fill-opacity:0.210531;stroke:#0000ff;stroke-width:0.32478;stroke-dasharray:none;stroke-opacity:1"
       d="m 371.1697,229.12871 c 29.42117,-28.1984 61.59665,-50.77369 89.98053,-63.13307 7.50286,-3.26702 20.32389,-7.54392 26.09436,-8.70467 4.66803,-0.939 15.95082,-2.2995 19.07002,-2.2995 h 1.78764 l -0.4178,1.46218 c -0.22978,0.8042 -5.11435,16.90237 -10.85457,35.77371 l -10.43679,34.31152 -1.59881,0.42144 c -2.04407,0.5388 -20.51623,2.85437 -32.1922,4.03542 -21.92607,2.21789 -39.74997,3.16117 -65.68579,3.47626 l -21.59532,0.26236 z"
       id="path36"
       transform="scale(0.26458333)" />
    <path
       style="fill:#999999;fill-opacity:0.210531;stroke:#0000ff;stroke-width:0.32478;stroke-dasharray:none;stroke-opacity:1"
       d="m 372.82491,603.07873 c 0.0987,-0.50888 29.26165,-92.41822 59.78411,-192.40871 l 55.4954,-181.8009 3.39426,-0.53031 c 1.86684,-0.29167 7.91101,-1.42937 13.43149,-2.52823 28.85935,-5.74449 52.2306,-14.05805 62.63065,-22.27882 1.2325,-0.97423 2.24091,-1.66172 2.24091,-1.52774 0,0.2046 -171.52797,348.85051 -187.70134,381.51974 -2.94005,5.93871 -9.37415,20.06386 -9.27548,19.55497 z"
       id="path37"
       sodipodi:nodetypes="sscssssss"
       transform="scale(0.26458333)" />
    <path
       style="fill:#999999;fill-opacity:0.210531;stroke:#0000ff;stroke-width:0.32478;stroke-dasharray:none;stroke-opacity:1"
       d="M 360.91189,594.98084 C 347.68993,566.48899 304.5216,471.84655 261.4903,377.69329 201.26676,245.92308 181.53835,202.52856 181.75625,202.31066 c 0.12811,-0.12811 0.68765,0.18492 1.24343,0.69561 0.55578,0.5107 2.4277,1.83574 4.15983,2.94453 12.11612,7.75596 33.05953,14.75199 60.06201,20.0634 9.31941,1.83314 27.40342,4.73423 32.90921,5.2794 1.64488,0.16287 3.62557,0.32611 3.86574,0.48012 0.42098,0.26996 82.40654,373.81824 82.1048,374.09133 -0.0817,0.0739 -3.1069,-6.39669 -5.18938,-10.88421 z"
       id="path38"
       sodipodi:nodetypes="ssssssssss"
       transform="scale(0.26458333)" />
    <path
       style="fill:#999999;fill-opacity:0.210531;stroke:#0000ff;stroke-width:0.530191;stroke-dasharray:none;stroke-opacity:1"
       d="m 349.37135,519.41702 c -9.37165,-42.50347 -18.18583,-82.23656 -19.58705,-88.29576 -1.40122,-6.0592 -2.69477,-12.17349 -2.87456,-13.5873 -0.17978,-1.41381 -9.29817,-43.50462 -20.26309,-93.53513 -10.96492,-50.03051 -20.78302,-91.82282 -20.65682,-91.92727 0.1262,-0.10444 3.65829,0.8589 6.68789,1.19617 10.54629,1.17416 33.53024,2.81094 50.65722,3.6075 9.4819,0.441 17.71853,0.47045 17.79713,0.54904 0.0786,0.0786 0.6021,55.56677 1.66986,122.82347 1.06777,67.2567 2.36783,147.8988 2.88902,179.20467 0.5212,31.30586 0.89637,56.99263 0.8337,57.0817 -0.0627,0.0891 -7.78165,-34.61362 -17.1533,-77.11709 z"
       id="path39"
       sodipodi:nodetypes="ssssscssssss"
       transform="scale(0.26458333)" />
    <path
       style="fill:#999999;fill-opacity:0.210531;stroke:#0000ff;stroke-width:0.529134;stroke-dasharray:none;stroke-opacity:1"
       d="m 369.56134,590.8638 c -0.26079,-8.28091 -1.03008,-27.28319 -1.23502,-42.43148 -0.19144,-14.14995 -1.14793,-88.92502 -2.58233,-163.78201 -0.9185,-47.93358 -0.33282,-98.9299 -2.34702,-147.4549 l 11.72224,0.38667 c 31.53495,1.04022 75.83598,-3.37103 99.86521,-6.83433 4.35888,-0.62824 10.28574,-1.69153 10.98942,-1.52754 0.61468,0.14326 -2.86885,7.29009 -7.22959,21.63215 -37.79948,124.31868 -101.67431,333.00168 -106.60177,348.45758 l -2.92461,10.98045 z"
       id="path40"
       sodipodi:nodetypes="csscssssscc"
       transform="scale(0.26458333)" />
    <path
       style="fill:none;fill-opacity:0.210531;stroke:#0000ff;stroke-width:0.14;stroke-dasharray:none;stroke-dashoffset:0;stroke-opacity:1"
       d="m 70.545741,39.450518 c -5.264036,8.242964 -5.424806,8.973349 -22.283366,13.535126 23.199607,-1.463694 28.725714,-1.116662 47.820718,9.315418"
       id="path41"
       sodipodi:nodetypes="ccc" />
    <path
       style="fill:none;fill-opacity:0.210531;stroke:#0000ff;stroke-width:0.14;stroke-dasharray:none;stroke-dashoffset:0;stroke-opacity:1"
       d="M 95.840387,62.461515 C 111.94862,56.86068 128.051,52.751324 144.12264,56.462308 c -4.79673,-2.263651 -10.35602,-3.196985 -9.18491,-15.87193"
       id="path43"
       sodipodi:nodetypes="ccc" />
    <path
       style="fill:none;fill-opacity:0.210531;stroke:#0000ff;stroke-width:0.14;stroke-dasharray:none;stroke-dashoffset:0;stroke-opacity:1"
       d="m 70.436266,39.557417 c 13.12199,0.25668 30.085504,1.6341 29.545213,-2.095098 0.05793,4.519225 19.383831,3.310567 34.934021,3.148033"
       id="path45"
       sodipodi:nodetypes="ccc" />
    <path
       style="fill:none;fill-opacity:0.210531;stroke:#0000ff;stroke-width:0.14;stroke-dasharray:0.14, 0.14;stroke-dashoffset:0;stroke-opacity:1"
       d="M 48.502784,52.966236 97.771303,161.89088 143.57005,56.463881"
       id="path46" />
    <path
       style="fill:none;fill-opacity:0.210531;stroke:#0000ff;stroke-width:0.14;stroke-dasharray:0.14, 0.14;stroke-dashoffset:0;stroke-opacity:1"
       d="M 100.045,37.495318 97.514411,161.71921"
       id="path47" />
    <path
       style="fill:#0000ff;fill-opacity:0.210531;stroke:#0000ff;stroke-width:0.187002;stroke-dasharray:none;stroke-dashoffset:0;stroke-opacity:1"
       d="m 272.6563,199.64391 c -5.86184,-0.91285 -13.62378,-1.56881 -23.36863,-1.97488 -11.23484,-0.46815 -28.56763,-0.0723 -49.40549,1.12841 -6.6903,0.3855 -12.20756,0.65753 -12.26057,0.60452 -0.053,-0.053 2.71728,-0.86444 6.15621,-1.80318 18.58921,-5.07435 32.263,-9.65171 40.2595,-13.47707 11.73934,-5.61584 17.00762,-10.57001 26.67748,-25.08693 2.71898,-4.08189 4.98835,-7.46893 5.04302,-7.52674 0.11833,-0.12513 0.0158,-0.57179 6.02802,26.25751 2.61348,11.66255 4.8178,21.48294 4.8985,21.8231 0.16884,0.71173 0.186,0.7115 -4.02804,0.0553 z"
       id="path48"
       transform="scale(0.26458333)" />
    <path
       style="fill:#0000ff;fill-opacity:0.210531;stroke:#0000ff;stroke-width:0.187002;stroke-dasharray:none;stroke-dashoffset:0;stroke-opacity:1"
       d="m 351.64357,228.76988 c -19.25664,-10.29039 -38.44088,-18.75242 -52.32082,-23.07833 -5.20357,-1.62178 -15.15788,-4.16958 -18.09624,-4.63172 -0.8261,-0.12992 -1.502,-0.34437 -1.502,-0.47655 0,-0.19252 -7.68506,-36.37356 -9.6884,-45.61272 -0.27396,-1.26344 -0.42722,-2.36884 -0.34058,-2.45644 0.23634,-0.23897 13.28392,6.4346 19.55269,10.00081 23.03459,13.10405 43.18565,31.01794 57.7049,51.2985 4.26103,5.95183 11.67253,18.22504 10.98079,18.18382 -0.1553,-0.009 -2.98595,-1.46156 -6.29034,-3.22737 z"
       id="path49"
       transform="scale(0.26458333)" />
    <path
       style="fill:#0000ff;fill-opacity:0.210531;stroke:#0000ff;stroke-width:0.187002;stroke-dasharray:none;stroke-dashoffset:0;stroke-opacity:1"
       d="m 273.18641,199.46857 c -3.13357,-0.53556 -11.50607,-1.36308 -17.49382,-1.72904 -12.32786,-0.75348 -33.42034,-0.43351 -56.89911,0.86315 -4.76221,0.263 -8.69502,0.44332 -8.73959,0.40072 -0.0446,-0.0426 2.65903,-0.82965 6.00799,-1.74898 16.74468,-4.59668 31.41251,-9.61929 39.0284,-13.36426 11.20529,-5.50999 16.01216,-10.15731 26.43977,-25.5622 4.46901,-6.60215 4.02335,-5.986 4.19641,-5.80182 0.0761,0.081 2.3162,9.84837 4.97798,21.7053 2.66179,11.85693 5.05045,22.4725 5.30815,23.59016 0.53502,2.32045 0.6664,2.24388 -2.82618,1.64697 z"
       id="path50"
       transform="scale(0.26458333)" />
    <path
       style="fill:#0000ff;fill-opacity:0.210531;stroke:#0000ff;stroke-width:0.187002;stroke-dasharray:none;stroke-dashoffset:0;stroke-opacity:1"
       d="m 371.43457,229.37048 c 2.52689,-2.41585 4.67385,-4.39976 4.77104,-4.40867 0.0972,-0.009 1.37388,-1.16915 2.83709,-2.5783 5.57705,-5.371 18.23725,-15.94014 27.90964,-23.29987 20.99023,-15.97147 44.52462,-29.47676 62.90709,-36.09944 6.0656,-2.18527 14.12966,-4.66002 17.31712,-5.3144 3.42211,-0.70255 12.6856,-1.90101 17.08325,-2.21014 2.86046,-0.20107 3.40472,-0.15883 3.26385,0.25327 -0.093,0.27201 -3.36393,11.07038 -7.26878,23.99637 -3.90485,12.926 -7.41748,24.47571 -7.80583,25.66604 l -0.70611,2.16424 -5.02212,0.23987 c -30.62488,1.46274 -60.27905,7.25608 -98.58,19.25891 -4.32904,1.35664 -8.56687,2.71309 -9.4174,3.01434 -1.38777,0.49154 -3.38151,0.76915 -2.25274,0.31368 0.60374,-0.24362 0.55877,-0.82618 -0.0638,-0.82618 -0.27805,0 -0.55636,0.34451 -0.61847,0.76557 -0.0939,0.63634 -0.79698,0.99427 -4.16542,2.12046 -2.22886,0.7452 -4.2168,1.35081 -4.41763,1.34581 -0.20083,-0.005 1.7023,-1.9857 4.22919,-4.40156 z m 5.47786,-0.5371 c 0,-0.19437 -0.23855,-0.35341 -0.53011,-0.35341 -0.29157,0 -0.53012,0.15904 -0.53012,0.35341 0,0.19438 0.23855,0.35341 0.53012,0.35341 0.29156,0 0.53011,-0.15903 0.53011,-0.35341 z m 0,-1.06023 c 0,-0.19438 -0.23855,-0.35341 -0.53011,-0.35341 -0.29157,0 -0.53012,0.15903 -0.53012,0.35341 0,0.19438 0.23855,0.35341 0.53012,0.35341 0.29156,0 0.53011,-0.15903 0.53011,-0.35341 z m 0,-1.06023 c 0,-0.19438 -0.23855,-0.35341 -0.53011,-0.35341 -0.29157,0 -0.53012,0.15903 -0.53012,0.35341 0,0.19437 0.23855,0.35341 0.53012,0.35341 0.29156,0 0.53011,-0.15904 0.53011,-0.35341 z m 0,-1.06023 c 0,-0.19438 -0.23855,-0.35342 -0.53011,-0.35342 -0.29157,0 -0.53012,0.15904 -0.53012,0.35342 0,0.19437 0.23855,0.35341 0.53012,0.35341 0.29156,0 0.53011,-0.15904 0.53011,-0.35341 z"
       id="path51"
       transform="scale(0.26458333)" />
    <path
       style="fill:#0000ff;fill-opacity:0.210531;stroke:#0000ff;stroke-width:0.187002;stroke-dasharray:none;stroke-dashoffset:0;stroke-opacity:1"
       d="m 535.77051,211.14113 c -3.97988,-0.808 -15.24106,-2.32058 -20.85123,-2.80071 -2.33251,-0.19962 -7.78667,-0.46693 -12.12036,-0.59403 -5.44434,-0.15967 -7.83704,-0.35008 -7.74226,-0.61613 0.0754,-0.21177 3.2236,-10.44325 6.99591,-22.73662 l 6.85873,-22.35158 0.22218,6.62481 c 0.32816,9.78503 1.69034,16.29962 4.71057,22.52828 4.28922,8.84572 9.97852,13.39831 25.28386,20.23219 1.21555,0.54274 0.37114,0.47076 -3.3574,-0.28621 z"
       id="path52"
       transform="scale(0.26458333)" />
    <path
       style="fill:#0000ff;fill-opacity:0.210531;stroke:#0000ff;stroke-width:0.187002;stroke-dasharray:none;stroke-dashoffset:0;stroke-opacity:1"
       d="m 536.26596,211.01038 c -0.21738,-0.21738 -11.27918,-1.83216 -16.92904,-2.47126 -2.62408,-0.29683 -8.74692,-0.70755 -13.60631,-0.91271 -4.8594,-0.20516 -10.10716,0.008 -10.51608,-0.0797 -0.70836,-0.15196 0.50448,-1.62249 6.7686,-21.99295 l 6.64034,-23.22453 0.36495,8.25251 c 0.43233,9.77632 1.89354,15.19602 4.77686,20.96682 3.813,7.63151 8.01662,11.46835 18.47112,16.85948 2.91564,1.50352 5.04936,2.73843 4.7416,2.74424 -0.30777,0.006 -0.62818,-0.058 -0.71204,-0.1419 z"
       id="path53"
       transform="scale(0.26458333)"
       sodipodi:nodetypes="ssssscssscs" />
    <path
       style="fill:#0000ff;fill-opacity:0.210531;stroke:#0000ff;stroke-width:0.187002;stroke-dasharray:none;stroke-dashoffset:0;stroke-opacity:1"
       d="m 377.79596,156.37246 c -24.58164,-0.9034 -60.86193,-3.23998 -76.15999,-4.90496 l -2.65058,-0.28848 2.65058,-0.0486 c 1.45782,-0.0267 9.93731,0.12447 18.84332,0.33605 32.20351,0.76503 49.64288,-0.84024 55.48262,-5.10711 0.81435,-0.59501 1.71919,-1.08834 2.01076,-1.09628 0.29156,-0.008 1.22031,0.59911 2.06389,1.34901 4.6503,4.13385 15.4518,6.47009 35.57434,7.69432 7.20593,0.4384 42.6229,0.55573 57.25252,0.18967 4.8594,-0.12159 8.67623,-0.15373 8.48185,-0.0714 -0.40913,0.17326 -15.60741,1.10715 -26.6825,1.63957 -9.80113,0.47118 -66.27166,0.69764 -76.86681,0.30826 z m 0.53012,-0.69508 c 0,-0.19437 -0.23856,-0.35341 -0.53012,-0.35341 -0.29156,0 -0.53012,0.15904 -0.53012,0.35341 0,0.19438 0.23856,0.35341 0.53012,0.35341 0.29156,0 0.53012,-0.15903 0.53012,-0.35341 z m 0,-1.06023 c 0,-0.19438 -0.23856,-0.35341 -0.53012,-0.35341 -0.29156,0 -0.53012,0.15903 -0.53012,0.35341 0,0.19438 0.23856,0.35341 0.53012,0.35341 0.29156,0 0.53012,-0.15903 0.53012,-0.35341 z m 0,-1.06023 c 0,-0.19438 -0.14965,-0.35341 -0.33256,-0.35341 -0.1829,0 -0.43084,0.15903 -0.55097,0.35341 -0.12013,0.19437 0.0295,0.35341 0.33255,0.35341 0.30304,0 0.55098,-0.15904 0.55098,-0.35341 z m 0,-1.06023 c 0,-0.19438 -0.15904,-0.35342 -0.35341,-0.35342 -0.19438,0 -0.35341,0.15904 -0.35341,0.35342 0,0.19437 0.15903,0.35341 0.35341,0.35341 0.19437,0 0.35341,-0.15904 0.35341,-0.35341 z m 0,-1.06024 c 0,-0.19437 -0.15904,-0.35341 -0.35341,-0.35341 -0.19438,0 -0.35341,0.15904 -0.35341,0.35341 0,0.19438 0.15903,0.35341 0.35341,0.35341 0.19437,0 0.35341,-0.15903 0.35341,-0.35341 z m 0,-1.06023 c 0,-0.19437 -0.15904,-0.35341 -0.35341,-0.35341 -0.19438,0 -0.35341,0.15904 -0.35341,0.35341 0,0.19438 0.15903,0.35341 0.35341,0.35341 0.19437,0 0.35341,-0.15903 0.35341,-0.35341 z m 0,-1.06023 c 0,-0.19438 -0.15904,-0.35341 -0.35341,-0.35341 -0.19438,0 -0.35341,0.15903 -0.35341,0.35341 0,0.19438 0.15903,0.35341 0.35341,0.35341 0.19437,0 0.35341,-0.15903 0.35341,-0.35341 z m 0,-1.06023 c 0,-0.19438 -0.15904,-0.35341 -0.35341,-0.35341 -0.19438,0 -0.35341,0.15903 -0.35341,0.35341 0,0.19437 0.15903,0.35341 0.35341,0.35341 0.19437,0 0.35341,-0.15904 0.35341,-0.35341 z m 0,-1.06023 c 0,-0.19438 -0.15904,-0.35341 -0.35341,-0.35341 -0.19438,0 -0.35341,0.15903 -0.35341,0.35341 0,0.19437 0.15903,0.35341 0.35341,0.35341 0.19437,0 0.35341,-0.15904 0.35341,-0.35341 z m 0,-1.06024 c 0,-0.19437 -0.15904,-0.35341 -0.35341,-0.35341 -0.19438,0 -0.35341,0.15904 -0.35341,0.35341 0,0.19438 0.15903,0.35341 0.35341,0.35341 0.19437,0 0.35341,-0.15903 0.35341,-0.35341 z"
       id="path54"
       transform="scale(0.26458333)" />
    <path
       style="fill:#0000ff;fill-opacity:0.210531;stroke:#0000ff;stroke-width:0.187002;stroke-dasharray:none;stroke-dashoffset:0;stroke-opacity:1"
       d="m 365.9567,155.63639 c -17.1977,-0.85395 -42.93447,-2.5275 -55.33191,-3.598 -4.35605,-0.37614 -2.1909,-0.42523 18.75391,-0.42523 24.59397,0 28.21771,-0.15848 36.4013,-1.59195 4.31673,-0.75613 7.26146,-1.67263 9.63298,-2.9981 0.86745,-0.48482 1.67896,-0.8186 1.80337,-0.74173 0.25413,0.15703 0.19216,6.52067 -0.0794,8.15906 -0.0967,0.58313 -0.18673,1.17951 -0.20012,1.32529 -0.0283,0.30775 -2.84585,0.27456 -10.98008,-0.12934 z"
       id="path55"
       transform="scale(0.26458333)" />
    <path
       style="fill:#0000ff;fill-opacity:0.210531;stroke:#0000ff;stroke-width:0.187002;stroke-dasharray:none;stroke-dashoffset:0;stroke-opacity:1"
       d="m 380.7116,156.12304 c -1.11766,-0.0701 -2.04764,-0.23886 -2.06663,-0.37494 -0.15609,-1.11908 -0.095,-9.35609 0.0701,-9.45813 0.11678,-0.0722 0.75291,0.27385 1.41365,0.76891 3.21794,2.41104 7.45426,3.93181 14.61908,5.248 10.815,1.98673 22.70014,2.6089 51.78651,2.71094 24.19926,0.0849 21.60242,0.44163 -7.06822,0.97099 -18.58851,0.34321 -54.13024,0.42441 -58.75451,0.13423 z"
       id="path56"
       transform="scale(0.26458333)" />
    <ellipse
       style="fill:#1a1a1a;fill-opacity:1;stroke:#1a1a1a;stroke-width:0.14;stroke-dasharray:none;stroke-dashoffset:0;stroke-opacity:1"
       id="path57"
       cx="70.778839"
       cy="39.121456"
       rx="1.2336891"
       ry="1.2005321" />
    <ellipse
       style="fill:#1a1a1a;fill-opacity:1;stroke:#1a1a1a;stroke-width:0.14;stroke-dasharray:none;stroke-dashoffset:0;stroke-opacity:1"
       id="path57-5"
       cx="95.834915"
       cy="62.522488"
       rx="1.2336891"
       ry="1.2005321" />
    <ellipse
       style="fill:#1a1a1a;fill-opacity:1;stroke:#1a1a1a;stroke-width:0.14;stroke-dasharray:none;stroke-dashoffset:0;stroke-opacity:1"
       id="path57-2"
       cx="134.71893"
       cy="40.640179"
       rx="1.2336891"
       ry="1.2005321" />
    <g
       inkscape:label=""
       transform="matrix(2.5218326,0,0,2.5363493,91.327871,44.520597)"
       id="g57">
      <g
         fill="#000000"
         fill-opacity="1"
         id="g2"
         transform="matrix(0.352778,0,0,0.352778,-0.846402,-0.701146)">
        <g
           id="use1"
           transform="translate(1.993,8.8000002)">
          <path
             d="M 3.015625,-3.15625 H 4.71875 c 1.40625,0 2.796875,-1.03125 2.796875,-2.140625 0,-0.78125 -0.65625,-1.515625 -1.96875,-1.515625 h -3.21875 c -0.1875,0 -0.296875,0 -0.296875,0.1875 0,0.125 0.078125,0.125 0.28125,0.125 0.125,0 0.3125,0.015625 0.421875,0.015625 0.171875,0.03125 0.21875,0.046875 0.21875,0.171875 0,0.03125 0,0.0625 -0.03125,0.1875 l -1.34375,5.34375 c -0.09375,0.390625 -0.109375,0.46875 -0.90625,0.46875 -0.15625,0 -0.265625,0 -0.265625,0.1875 C 0.40625,0 0.515625,0 0.546875,0 0.828125,0 1.53125,-0.03125 1.8125,-0.03125 c 0.21875,0 0.4375,0.015625 0.640625,0.015625 0.21875,0 0.4375,0.015625 0.640625,0.015625 0.078125,0 0.203125,0 0.203125,-0.203125 0,-0.109375 -0.09375,-0.109375 -0.28125,-0.109375 -0.359375,0 -0.640625,0 -0.640625,-0.171875 0,-0.0625 0.015625,-0.109375 0.03125,-0.171875 z M 3.734375,-6.125 C 3.828125,-6.46875 3.84375,-6.5 4.28125,-6.5 h 0.953125 c 0.828125,0 1.359375,0.265625 1.359375,0.953125 0,0.390625 -0.203125,1.25 -0.59375,1.609375 -0.5,0.453125 -1.09375,0.53125 -1.53125,0.53125 H 3.0625 Z m 0,0"
             id="path2" />
        </g>
      </g>
    </g>
    <path
       style="fill:none;fill-opacity:0.952941;stroke:#000000;stroke-width:0.3;stroke-dasharray:none;stroke-opacity:0.8;marker-end:url(#Triangle)"
       d="m 108.52425,46.30964 c 0,0 -2.15976,2.732284 2.32997,4.305808 2.43586,0.853698 7.66097,-0.07033 7.66097,-0.07033"
       id="path3"
       sodipodi:nodetypes="csc" />
    <path
       style="fill:none;fill-opacity:0.952941;stroke:#000000;stroke-width:0.3;stroke-dasharray:none;stroke-opacity:0.8;marker-end:url(#Triangle-9)"
       d="m 87.413632,46.30964 c 0,0 2.15976,2.732284 -2.32997,4.305808 -2.43586,0.853698 -7.66097,-0.07033 -7.66097,-0.07033"
       id="path3-7"
       sodipodi:nodetypes="csc" />
    <path
       style="fill:none;fill-opacity:0.952941;stroke:#000000;stroke-width:0.19903;stroke-dasharray:none;stroke-opacity:0.8;marker-end:url(#Triangle-9-1)"
       d="m 69.310113,51.278363 c 0,0 -0.441082,-2.171928 -3.313752,-0.684829 -1.558539,0.806813 -3.462214,3.687673 -3.462214,3.687673"
       id="path3-7-3"
       sodipodi:nodetypes="csc" />
    <path
       style="fill:none;fill-opacity:0.952941;stroke:#000000;stroke-width:0.19903;stroke-dasharray:none;stroke-opacity:0.8;marker-end:url(#Triangle-9-1-1)"
       d="m 67.983978,46.718066 c 0,0 0.67702,-2.110325 -2.55597,-2.217422 -1.754029,-0.0581 -4.823086,1.524371 -4.823086,1.524371"
       id="path3-7-3-4"
       sodipodi:nodetypes="csc" />
    <path
       style="fill:none;fill-opacity:0.952941;stroke:#000000;stroke-width:0.19903;stroke-dasharray:none;stroke-opacity:0.8;marker-end:url(#Triangle-9-1-3)"
       d="m 121.72106,54.70133 c 0,0 0.44108,-2.171928 3.31375,-0.684829 1.55854,0.806813 3.46221,3.687673 3.46221,3.687673"
       id="path3-7-3-3"
       sodipodi:nodetypes="csc" />
    <path
       style="fill:none;fill-opacity:0.952941;stroke:#000000;stroke-width:0.25;stroke-dasharray:none;stroke-opacity:0.8;marker-end:url(#Triangle-3)"
       d="m 99.893311,44.941583 c 0,0 1.756909,1.456073 3.349839,-0.559151 1.59293,-2.015224 -1.71442,-4.069169 -1.71442,-4.069169"
       id="path3-6"
       sodipodi:nodetypes="czc" />
    <path
       style="fill:none;fill-opacity:0.952941;stroke:#000000;stroke-width:0.19903;stroke-dasharray:none;stroke-opacity:0.8;marker-end:url(#Triangle-9-1-5)"
       d="m 134.00981,50.741538 c 0,0 -0.89015,-2.029647 2.31476,-2.468188 1.73879,-0.237925 4.95412,1.021011 4.95412,1.021011"
       id="path3-7-3-7"
       sodipodi:nodetypes="csc" />
    <g
       inkscape:label=""
       transform="matrix(4.5050966,0,0,4.5050966,52.787449,117.16671)"
       id="g7">
      <g
         fill="#000000"
         fill-opacity="1"
         id="g6"
         transform="matrix(0.352778,0,0,0.352778,-0.747183,-0.623976)">
        <g
           id="g5"
           transform="translate(1.993,8.8000002)">
          <path
             d="m 4.9375,-1.5625 c 0,-0.0625 -0.046875,-0.078125 -0.09375,-0.078125 -0.171875,0 -0.40625,0.15625 -0.421875,0.15625 -0.1875,0.125 -0.234375,0.203125 -0.359375,0.375 -0.296875,0.46875 -0.75,0.796875 -1.390625,0.796875 -0.890625,0 -1.703125,-0.640625 -1.703125,-2.140625 0,-0.890625 0.359375,-2.078125 0.890625,-2.875 0.4375,-0.640625 0.96875,-1.15625 2,-1.15625 0.375,0 0.609375,0.140625 0.609375,0.515625 0,0.34375 -0.359375,1.046875 -0.484375,1.25 -0.0625,0.109375 -0.0625,0.140625 -0.0625,0.15625 0,0.0625 0.0625,0.0625 0.109375,0.0625 0.203125,0 0.578125,-0.21875 0.6875,-0.375 0.03125,-0.046875 0.609375,-1.015625 0.609375,-1.53125 0,-0.546875 -0.453125,-0.625 -0.8125,-0.625 -1.4375,0 -2.625,0.953125 -3.09375,1.515625 C 0.234375,-4.09375 0.125,-2.546875 0.125,-2.03125 0.125,-0.5625 0.859375,0.234375 2.015625,0.234375 3.625,0.234375 4.9375,-1.3125 4.9375,-1.5625 Z m 0,0"
             id="path5" />
        </g>
      </g>
    </g>
  </g>
</svg>
