<?xml version="1.0" encoding="UTF-8" standalone="no"?>
<svg
   version="1.1"
   width="1082.2839"
   height="1069.7198"
   id="svg109"
   sodipodi:docname="triangulated-sphere.svg"
   inkscape:version="1.3.2 (091e20ef0f, 2023-11-25, custom)"
   xmlns:inkscape="http://www.inkscape.org/namespaces/inkscape"
   xmlns:sodipodi="http://sodipodi.sourceforge.net/DTD/sodipodi-0.dtd"
   xmlns="http://www.w3.org/2000/svg"
   xmlns:svg="http://www.w3.org/2000/svg">
  <defs
     id="defs109" />
  <sodipodi:namedview
     id="namedview109"
     pagecolor="#ffffff"
     bordercolor="#000000"
     borderopacity="0.25"
     inkscape:showpageshadow="2"
     inkscape:pageopacity="0.0"
     inkscape:pagecheckerboard="0"
     inkscape:deskcolor="#d1d1d1"
     inkscape:zoom="0.35911136"
     inkscape:cx="594.52311"
     inkscape:cy="490.09868"
     inkscape:window-width="1920"
     inkscape:window-height="1200"
     inkscape:window-x="0"
     inkscape:window-y="0"
     inkscape:window-maximized="0"
     inkscape:current-layer="svg109" />
  <g
     id="ViewLayer_LineSet"
     inkscape:label="ViewLayer_LineSet"
     transform="translate(-410.61202,-7.5961734)">
    <g
       inkscape:groupmode="layer"
       id="strokes"
       inkscape:label="strokes">
      <path
         fill="none"
         stroke-width="3"
         stroke-linecap="butt"
         stroke-opacity="1"
         stroke="#000000"
         stroke-linejoin="round"
         d="m 737.933,997.523 7.997,6.005 7.996,6.004 7.996,6.005 7.997,6.005 4.346,3.264 7.997,6.005 7.996,6.004 7.996,6.005 1.037,0.779 6.858,5.149 2.148,1.613 7.996,6.005 7.996,6.005 7.997,6.005 7.996,6.004 1.913,1.436"
         id="path1" />
      <path
         fill="none"
         stroke-width="3"
         stroke-linecap="butt"
         stroke-opacity="1"
         stroke="#000000"
         stroke-linejoin="round"
         d="m 842.195,1075.816 2.231,-5.489 0.826,-2.03"
         id="path2" />
      <path
         fill="none"
         stroke-width="3"
         stroke-linecap="butt"
         stroke-opacity="1"
         stroke="#000000"
         stroke-linejoin="round"
         d="m 755.457,999.951 7.957,6.056 7.958,6.057 7.957,6.057 7.957,6.056 7.957,6.057 7.958,6.056 7.957,6.057 4.374,3.329 7.957,6.057 6.857,5.219 7.957,6.056 2.214,1.685 0.813,0.619 3.922,2.985 4.713,-0.711 1.663,-0.251 3.398,-0.513 9.888,-1.492 9.888,-1.491 9.888,-1.492 9.888,-1.492 9.888,-1.492 9.888,-1.491 9.888,-1.492 9.888,-1.492 9.889,-1.492 9.888,-1.492 9.888,-1.491 5.901,-0.891 9.888,-1.491 9.888,-1.492 9.888,-1.492 9.888,-1.492 9.888,-1.491 9.888,-1.492 9.387,-1.416"
         id="path3" />
      <path
         fill="none"
         stroke-width="3"
         stroke-linecap="butt"
         stroke-opacity="1"
         stroke="#000000"
         stroke-linejoin="round"
         d="m 842.195,1075.816 9.892,-1.46 9.893,-1.46 9.893,-1.46 9.893,-1.46 9.893,-1.46 9.893,-1.46 9.892,-1.46 9.893,-1.46 9.893,-1.461 9.893,-1.46 9.893,-1.46 9.893,-1.46 9.892,-1.46 9.893,-1.46 9.893,-1.46 9.893,-1.46 9.893,-1.46 9.893,-1.461 9.892,-1.46 9.893,-1.46 9.893,-1.46 9.893,-1.46 5.485,-0.81"
         id="path4" />
      <path
         fill="none"
         stroke-width="3"
         stroke-linecap="butt"
         stroke-opacity="1"
         stroke="#000000"
         stroke-linejoin="round"
         d="m 737.933,997.523 9.375,1.299 8.149,1.129 4.668,0.647 9.905,1.372 7.795,1.08 3.62,0.502 7.937,1.099 1.484,0.206 9.905,1.372 9.906,1.373 9.905,1.372 9.905,1.373 9.906,1.372 9.905,1.373 9.906,1.372 9.905,1.373 9.905,1.372 9.906,1.372 9.905,1.373 7.048,0.976 1.127,0.157 9.35,1.295 0.896,0.124 9.905,1.373 9.906,1.372 9.905,1.373 9.905,1.372 9.906,1.372 9.905,1.373 9.906,1.372 9.905,1.373 9.905,1.372 9.906,1.373 8.752,1.212 9.905,1.373 2.454,0.34 6.888,0.954 0.797,0.111 9.906,1.372 2.705,0.375 5.733,0.794 0.352,0.049 0.53,0.073"
         id="path5" />
      <path
         fill="none"
         stroke-width="3"
         stroke-linecap="butt"
         stroke-opacity="1"
         stroke="#000000"
         stroke-linejoin="round"
         d="m 749.5,990.151 9.905,1.374 9.374,1.3 9.905,1.373 3.059,0.424 9.906,1.374 9.905,1.373 9.905,1.374 9.905,1.373 9.906,1.374 9.905,1.374 9.905,1.373 9.905,1.374 9.905,1.373 9.906,1.374 9.905,1.373 9.905,1.374 9.905,1.373 7.131,0.989 9.905,1.374 1.365,0.189 9.905,1.373 9.905,1.374 9.905,1.373 9.906,1.374 9.905,1.373 9.905,1.374 9.905,1.373 9.905,1.374 9.906,1.373 9.905,1.374 9.905,1.374 9.905,1.373 6.076,0.843"
         id="path6" />
      <path
         fill="none"
         stroke-width="3"
         stroke-linecap="butt"
         stroke-opacity="1"
         stroke="#000000"
         stroke-linejoin="round"
         d="m 1053.85,1032.355 -1.6,-2.03 -6.192,-7.853 -6.191,-7.853 -5.04,-6.392 -2.158,-2.738 -5.166,-6.551 -0.572,-0.727 -6.192,-7.852 -6.191,-7.853 -6.191,-7.853 -5.657,-7.175 -0.58,-0.736 -3.794,-4.811 -0.295,-0.374 -6.191,-7.853 -6.191,-7.853 -6.192,-7.852 -6.191,-7.853 -6.191,-7.853 -6.192,-7.853 -6.191,-7.853 -6.192,-7.853 -6.191,-7.852 -3.894,-4.94 -5.751,-7.294 -3.005,-3.811 -5.107,-6.478 -6.191,-7.852 -6.192,-7.853 -6.191,-7.853 -6.192,-7.853 -6.191,-7.853 -3.42,-4.338 -6.479,7.618 -6.479,7.617 -6.479,7.617 -6.479,7.618 -6.478,7.617 -6.479,7.617 -6.479,7.618 -6.479,7.617 -6.479,7.617 -6.479,7.618 -6.479,7.617 -6.479,7.617 -6.479,7.618 -6.479,7.617 -3.58,4.209 -0.26,0.306 -3.941,4.634 -1.38,1.622 -6.479,7.618 -6.479,7.617 -6.479,7.617 -6.479,7.618 -1.095,1.287 -0.624,0.734 -3.349,3.937 -1.534,1.804 -6.479,7.618 -0.431,0.507 -1.381,1.623 -1.663,1.06 -1.266,0.807 -8.433,5.374 -0.205,0.131"
         id="path7" />
      <path
         fill="none"
         stroke-width="3"
         stroke-linecap="butt"
         stroke-opacity="1"
         stroke="#000000"
         stroke-linejoin="round"
         d="m 1065.322,1042.884 -0.134,-0.123 -4.919,-4.515 -3.625,-3.327 -1.997,-1.833 -0.797,-0.731"
         id="path8" />
      <path
         fill="none"
         stroke-width="3"
         stroke-linecap="butt"
         stroke-opacity="1"
         stroke="#000000"
         stroke-linejoin="round"
         d="m 1065.322,1042.884 -0.1,-0.127 -3.676,-4.67 -3.164,-4.019 -1.09,-1.385 -0.4,-0.508 -1.066,-1.354 -6.185,-7.858 -6.185,-7.858 -4.812,-6.114 -6.186,-7.857 -1.706,-2.169 -6.185,-7.857 -6.185,-7.858 -6.186,-7.858 -6.185,-7.858 -1.096,-1.392 -4.662,-5.923 -6.185,-7.857 -6.185,-7.858 -6.185,-7.858 -6.185,-7.858 -6.185,-7.857 -6.185,-7.858 -6.186,-7.858 -6.185,-7.858 -6.185,-7.857 -6.185,-7.858 -1.636,-2.078 -6.185,-7.858 -6.185,-7.858 -1.47,-1.868 -6.186,-7.857 -6.185,-7.858 -6.185,-7.858 -6.185,-7.858 -6.185,-7.857 -2.798,-3.555"
         id="path9" />
      <path
         fill="none"
         stroke-width="3"
         stroke-linecap="butt"
         stroke-opacity="1"
         stroke="#000000"
         stroke-linejoin="round"
         d="m 889.202,819.137 0.973,5.62"
         id="path10" />
      <path
         fill="none"
         stroke-width="3"
         stroke-linecap="butt"
         stroke-opacity="1"
         stroke="#000000"
         stroke-linejoin="round"
         d="m 889.202,819.137 -6.468,7.627 -6.468,7.627 -6.467,7.627 -6.468,7.626 -6.467,7.627 -6.468,7.627 -6.467,7.627 -6.468,7.627 -6.467,7.627 -6.468,7.627 -6.467,7.627 -6.468,7.627 -6.468,7.627 -6.467,7.627 -7.112,8.387 -5.568,6.566 -6.467,7.627 -6.468,7.627 -6.467,7.627 -6.021,7.1 -5.489,6.473 -6.467,7.627 -2.476,2.92 -0.559,0.659 -0.487,0.574 -0.436,0.514 -6.468,7.627 -0.238,0.281"
         id="path11" />
      <path
         fill="none"
         stroke-width="3"
         stroke-linecap="butt"
         stroke-opacity="1"
         stroke="#000000"
         stroke-linejoin="round"
         d="m 412.112,591.367 3.968,9.179 3.967,9.18 3.967,9.179 3.967,9.18 3.967,9.179 3.967,9.179 3.968,9.18 3.967,9.179 3.967,9.18 3.967,9.179 3.967,9.179 3.967,9.18 3.968,9.179 3.967,9.18 3.967,9.179 3.967,9.179 3.967,9.18 3.968,9.179 3.967,9.18 3.967,9.179 3.967,9.179 3.967,9.18 3.967,9.179 3.968,9.18 3.967,9.179 3.967,9.18 3.967,9.179 3.967,9.179 3.967,9.18 3.968,9.179 3.967,9.18 3.967,9.179 3.967,9.179 3.967,9.18 1.929,4.462"
         id="path12" />
      <path
         fill="none"
         stroke-width="3"
         stroke-linecap="butt"
         stroke-opacity="1"
         stroke="#000000"
         stroke-linejoin="round"
         d="m 1344.87,925.403 4.613,-8.873 4.612,-8.872 4.612,-8.873 4.613,-8.873 4.612,-8.873 4.612,-8.873 4.613,-8.872 4.612,-8.873 4.612,-8.873 4.613,-8.873 4.612,-8.872 4.612,-8.873 4.613,-8.873 4.612,-8.873 4.612,-8.873 4.613,-8.872 4.612,-8.873 4.612,-8.873 4.613,-8.873 4.612,-8.872 4.612,-8.873 4.613,-8.873 4.612,-8.873 4.613,-8.873 4.612,-8.872 4.612,-8.873 4.613,-8.873 4.612,-8.873 4.612,-8.873 4.613,-8.872 4.612,-8.873 3.543,-6.816"
         id="path13" />
      <path
         fill="none"
         stroke-width="3"
         stroke-linecap="butt"
         stroke-opacity="1"
         stroke="#000000"
         stroke-linejoin="round"
         d="m 557.077,742.921 1.437,0.336 9.736,2.28 9.737,2.28 9.737,2.28 9.736,2.28 9.737,2.28 9.737,2.279 9.736,2.28 9.737,2.28 9.737,2.28 9.736,2.28 9.737,2.28 9.737,2.279 4.376,1.025 0.773,0.181 5.698,1.334 1.654,0.388 9.737,2.279 9.736,2.28 9.737,2.28 9.737,2.28 9.736,2.28 9.737,2.279 9.737,2.28 9.736,2.28 9.737,2.28 9.736,2.28 9.737,2.28 9.737,2.279 9.736,2.28 9.737,2.28 9.737,2.28 9.736,2.28 9.737,2.28 9.737,2.279 4.107,0.962 4.105,0.961 5.027,1.177 3.01,0.705 -0.415,0.491 -6.447,7.645 -6.446,7.645 -6.447,7.644 -6.447,7.645 -6.447,7.644 -6.446,7.645 -6.447,7.644 -6.447,7.645 -6.447,7.645 -6.446,7.644 -6.447,7.645 -6.447,7.644 -6.447,7.645 -6.446,7.644 -5.074,6.017 -0.259,0.306 -3.915,4.643 -1.37,1.625 -6.447,7.645 -6.447,7.644 -6.446,7.645 -3.201,3.795 -0.619,0.733 -3.316,3.934 -1.52,1.801 -6.447,7.645 -3.624,4.297 -0.608,0.722"
         id="path14" />
      <path
         fill="none"
         stroke-width="3"
         stroke-linecap="butt"
         stroke-opacity="1"
         stroke="#000000"
         stroke-linejoin="round"
         d="m 541.471,737.799 9.427,3.094 0.424,0.139 5.755,1.889 6.026,7.98 6.026,7.98 6.027,7.98 6.026,7.98 6.027,7.98 6.026,7.98 6.027,7.98 6.026,7.98 6.027,7.98 6.026,7.981 4.369,5.785 6.027,7.98 6.026,7.98 6.027,7.98 6.026,7.98 6.027,7.98 1.337,1.771 6.026,7.98 6.027,7.98 6.026,7.98 6.027,7.98 3.449,4.568 5.797,7.676 6.027,7.98 6.026,7.98 6.027,7.98 6.026,7.98 6.027,7.98 6.026,7.98 6.027,7.981 6.026,7.98 4.658,6.168 -0.153,1.369 -0.118,1.059 -1.108,9.939 -0.09,0.805"
         id="path15" />
      <path
         fill="none"
         stroke-width="3"
         stroke-linecap="butt"
         stroke-opacity="1"
         stroke="#000000"
         stroke-linejoin="round"
         d="m 889.202,819.137 -9.421,-0.721 -0.417,-0.032"
         id="path16" />
      <path
         fill="none"
         stroke-width="3"
         stroke-linecap="butt"
         stroke-opacity="1"
         stroke="#000000"
         stroke-linejoin="round"
         d="m 889.202,819.137 -7.535,-1.763 -9.737,-2.277 -2.733,-0.64 -9.737,-2.277 -9.738,-2.278 -9.737,-2.278 -9.737,-2.277 -9.737,-2.278 -9.737,-2.277 -9.737,-2.278 -9.738,-2.278 -9.737,-2.277 -9.737,-2.278 -9.737,-2.278 -9.737,-2.277 -9.737,-2.278 -9.738,-2.277 -9.737,-2.278 -9.737,-2.278 -9.737,-2.277 -9.737,-2.278 -6.286,-1.47 -8.122,-1.9 -9.737,-2.278 -9.737,-2.277 -9.737,-2.278 -9.737,-2.277 -9.737,-2.278 -9.738,-2.278 -9.737,-2.277 -9.737,-2.278 -9.737,-2.278 -9.737,-2.277 -9.737,-2.278 -9.738,-2.277 -5.51,-1.289 -1.178,-0.276 -4.7,-1.099 -0.373,-0.087 -9.442,-2.209"
         id="path17" />
      <path
         fill="none"
         stroke-width="3"
         stroke-linecap="butt"
         stroke-opacity="1"
         stroke="#000000"
         stroke-linejoin="round"
         d="m 541.471,737.799 2.483,3.282 6.033,7.976 1.039,1.374 0.685,0.904 6.032,7.976 6.033,7.975 6.033,7.975 6.033,7.976 3.408,4.505 2.859,3.78 6.033,7.976 6.033,7.975 6.032,7.975 1.672,2.21 6.032,7.975 3.171,4.192 6.033,7.975 6.033,7.976 6.032,7.975 6.033,7.975 6.033,7.976 6.033,7.975 6.032,7.975 6.033,7.976 6.033,7.975 3.354,4.434 0.188,0.248 4.933,6.523 0.74,0.978 6.033,7.975 6.033,7.975 6.032,7.976 6.033,7.975 6.033,7.975 6.033,7.976 6.032,7.975 6.033,7.975 0.525,0.694 3.54,4.68 4.444,5.875 6.033,7.975 0.537,0.711 -9.036,-4.283 -9.036,-4.284 -9.036,-4.283 -9.037,-4.283 -9.036,-4.284 -9.036,-4.283 -9.036,-4.283 -1.854,-0.879 -9.036,-4.283 -9.036,-4.284 -9.036,-4.283 -9.037,-4.283 -9.169,-4.347 -9.037,-4.283 -3.447,-1.635 -3.917,-1.856 -9.036,-4.284 -9.036,-4.283 -9.036,-4.283 -9.037,-4.284 -9.036,-4.283 -9.036,-4.283 -7.969,-3.778"
         id="path18" />
      <path
         fill="none"
         stroke-width="3"
         stroke-linecap="butt"
         stroke-opacity="1"
         stroke="#000000"
         stroke-linejoin="round"
         d="m 1342.432,913.245 4.612,-8.873 4.612,-8.873 4.611,-8.873 4.612,-8.874 4.611,-8.873 4.612,-8.873 4.612,-8.873 4.611,-8.873 4.612,-8.873 2.142,-4.122 4.612,-8.873 2.728,-5.248 0.173,-0.334 0.075,-0.144 4.612,-8.873 1.053,-2.028 4.612,-8.873 4.612,-8.873 0.447,-0.862 4.612,-8.873 4.612,-8.873 4.611,-8.873 4.612,-8.873 4.611,-8.873 4.612,-8.873 4.612,-8.874 4.611,-8.873 4.612,-8.873 4.612,-8.873 4.611,-8.873 4.612,-8.873 4.612,-8.873 4.611,-8.874 4.781,-9.198"
         id="path19" />
      <path
         fill="none"
         stroke-width="3"
         stroke-linecap="butt"
         stroke-opacity="1"
         stroke="#000000"
         stroke-linejoin="round"
         d="m 1281.218,775.678 4.066,9.136 4.065,9.137 4.065,9.136 4.066,9.136 4.065,9.136 2.392,5.376 0.303,0.679 2.604,5.853 0.157,0.354 4.066,9.136 4.065,9.136 4.066,9.137 4.065,9.136 1.594,3.582 1.058,2.377 1.388,3.12 1.738,3.906 4.065,9.136 4.066,9.136 3.563,8.009 0.039,0.086 1.658,3.727 0.249,1.239 0.464,2.313 1.725,8.606"
         id="path20" />
      <path
         fill="none"
         stroke-width="3"
         stroke-linecap="butt"
         stroke-opacity="1"
         stroke="#000000"
         stroke-linejoin="round"
         d="m 1278.656,777.289 2.562,-1.611 8.466,-5.323 8.466,-5.323 8.465,-5.322 8.466,-5.323 8.466,-5.323 8.465,-5.323 8.466,-5.322 8.466,-5.323 8.466,-5.323 1.422,-0.894 1.495,-0.94 4.806,-3.021 0.542,-0.342 8.466,-5.322 8.466,-5.323 8.465,-5.323 8.466,-5.322 8.466,-5.323 8.465,-5.323 2.808,-1.765 2.676,-1.683 3.837,-2.412 4.498,-2.828 8.466,-5.323 8.465,-5.323 8.466,-5.322 8.466,-5.323 8.716,-5.48 0.143,-0.091 5.337,-3.355 0.843,-0.53 1.319,-0.829 1.65,-1.037 8.465,-5.323 0.772,-0.485"
         id="path21" />
      <path
         fill="none"
         stroke-width="3"
         stroke-linecap="butt"
         stroke-opacity="1"
         stroke="#000000"
         stroke-linejoin="round"
         d="m 1278.656,777.289 4.081,9.129 4.081,9.13 4.081,9.129 4.082,9.129 4.081,9.129 1.979,4.428 3.074,6.875 4.081,9.129 4.081,9.129 4.082,9.13 4.081,9.129 2.251,5.036 4.081,9.129 0.118,0.263 4.081,9.129 4.081,9.13 4.068,9.098 0.023,0.052 1.003,2.244 0.303,0.677 1.55,3.467 2.871,6.423"
         id="path22" />
      <path
         fill="none"
         stroke-width="3"
         stroke-linecap="butt"
         stroke-opacity="1"
         stroke="#000000"
         stroke-linejoin="round"
         d="m 680.439,154.169 0.282,1.781 1.559,9.878 1.56,9.878 1.559,9.877 1.439,9.116 0.232,1.468 0.952,6.031 0.005,0.033 1.56,9.878 1.559,9.878 1.56,9.877 1.559,9.878 1.56,9.877 1.559,9.878 1.56,9.878 1.559,9.877 1.56,9.878 1.559,9.878 1.56,9.877 1.559,9.878 1.446,9.157 1.494,9.464 0.716,4.539 1.338,8.473 1.56,9.878 1.559,9.878 0.61,3.862 0.279,1.765 0.656,4.159 0.378,2.394 1.56,9.878 1.559,9.877 0.206,1.305 0.508,3.219 1.56,9.877 0.331,2.098 0.83,5.261 1.56,9.878 0.346,2.191 -4.525,-0.629 -1.973,-0.274 -4.494,-0.623 -1.209,-0.168 -9.905,-1.375 -9.905,-1.376 -9.905,-1.375 -9.904,-1.375 -9.906,-1.375 -9.904,-1.375 -9.906,-1.375 -9.904,-1.375 -9.906,-1.376 -9.727,-1.35 -5.146,-0.714 -8.977,-1.247 -3.825,-0.531 -9.905,-1.375 -9.905,-1.375 -9.905,-1.375 -9.905,-1.375 -9.905,-1.375 -9.905,-1.376 -1.916,-0.266 -0.739,-0.102 -5.428,-0.754 -2.472,-0.343 -9.905,-1.375 -7.777,-1.08 -1.208,-0.168 -4.793,-0.665 -2.394,-0.332 -0.238,-0.034 -1.184,-0.164"
         id="path23" />
      <path
         fill="none"
         stroke-width="3"
         stroke-linecap="butt"
         stroke-opacity="1"
         stroke="#000000"
         stroke-linejoin="round"
         d="m 680.723,138.156 -0.177,9.998 -0.023,1.317 -0.033,1.822 -0.027,1.523 -0.024,1.353 -5.844,8.114 -5.844,8.115 -5.844,8.114 -5.844,8.115 -5.844,8.114 -5.844,8.115 -3.435,4.769 -5.844,8.114 -5.92,8.22 -0.434,0.603 -5.844,8.115 -5.844,8.114 -5.844,8.115 -5.845,8.114 -5.844,8.115 -2.15,2.986 -5.844,8.114 -5.844,8.115 -5.844,8.114 -5.844,8.115 -5.844,8.114 -5.845,8.115 -5.844,8.115 -5.844,8.114 -5.844,8.115 -5.844,8.114 -5.844,8.115 -5.844,8.114 -5.844,8.115 -5.844,8.115 -5.845,8.114 -2.905,4.034 -5.844,8.115 -2.141,2.973 -1.087,1.508 -2.679,0.626 -0.934,0.218 -9.739,2.273 -0.16,0.038"
         id="path24" />
      <path
         fill="none"
         stroke-width="3"
         stroke-linecap="butt"
         stroke-opacity="1"
         stroke="#000000"
         stroke-linejoin="round"
         d="m 485.22,409.624 9.903,1.391 0.531,0.075 0.265,0.037 0.604,0.085 0.324,0.046 3.363,0.472 8.612,1.211 9.902,1.391 5.091,0.716 8.632,1.213 9.902,1.392 9.903,1.391 9.903,1.392 9.902,1.392 9.903,1.392 4.009,0.563 9.903,1.392 8.046,1.131 9.903,1.391 9.903,1.392 9.902,1.392 9.903,1.392 9.903,1.391 9.902,1.392 9.903,1.392 9.903,1.392 9.903,1.391 9.902,1.392 8.888,1.249 7.674,1.079 9.72,1.366"
         id="path25" />
      <path
         fill="none"
         stroke-width="3"
         stroke-linecap="butt"
         stroke-opacity="1"
         stroke="#000000"
         stroke-linejoin="round"
         d="m 729.227,443.917 -3.99,-6.001"
         id="path26" />
      <path
         fill="none"
         stroke-width="3"
         stroke-linecap="butt"
         stroke-opacity="1"
         stroke="#000000"
         stroke-linejoin="round"
         d="m 729.227,443.917 -1.567,-9.877 -1.567,-9.876 -0.972,-6.132 -1.567,-9.876 -1.567,-9.877 -0.104,-0.657 -1.567,-9.876 -0.708,-4.467 -1.318,-8.307 -1.567,-9.876 -1.024,-6.458 -1.567,-9.877 -1.567,-9.876 -0.426,-2.689 -1.567,-9.877 -1.567,-9.876 -1.567,-9.877 -1.566,-9.876 -1.567,-9.877 -1.567,-9.876 -1.567,-9.877 -1.566,-9.876 -1.567,-9.877 -1.567,-9.876 -1.566,-9.877 -1.567,-9.876 -1.567,-9.877 -1.009,-6.36 -1.194,-7.528 -1.567,-9.876 -1.566,-9.877 -1.567,-9.876 -1.567,-9.877 -0.265,-1.671 -0.178,-1.123 -0.259,-1.633 -0.014,-0.084 -0.17,-1.077 -1.567,-9.876 -0.125,-0.787"
         id="path27" />
      <path
         fill="none"
         stroke-width="3"
         stroke-linecap="butt"
         stroke-opacity="1"
         stroke="#000000"
         stroke-linejoin="round"
         d="m 680.723,138.156 -5.844,8.114 -1.266,1.758 -5.703,7.919 -4.159,5.775 -5.844,8.115 -5.844,8.114 -5.844,8.115 -5.844,8.115 -5.844,8.114 -5.843,8.115 -0.936,1.299 -0.107,0.148 -0.197,0.274 -0.063,0.087 -0.19,0.264 -0.147,0.205 -0.451,0.627 -0.518,0.718 -0.885,1.229 -5.083,7.059 -0.17,0.235 -5.844,8.115 -5.844,8.114 -5.844,8.115 -5.844,8.115 -5.843,8.114 -5.844,8.115 -5.844,8.115 -5.844,8.114 -5.844,8.115 -5.844,8.115 -5.844,8.115 -5.844,8.114 -5.844,8.115 -5.844,8.115 -5.844,8.114 -5.844,8.115 -5.844,8.115 -5.844,8.114 -5.844,8.115 -1.877,2.607 -1.132,1.571 -4.471,6.209 -2.442,3.391 -2.495,3.464 -1.827,2.537 -5.249,7.289 -4.193,5.822"
         id="path28" />
      <path
         fill="none"
         stroke-width="3"
         stroke-linecap="butt"
         stroke-opacity="1"
         stroke="#000000"
         stroke-linejoin="round"
         d="m 748.476,43.458 -7.688,6.395 -7.687,6.395 -7.688,6.396 -7.688,6.395 -7.687,6.395 -7.688,6.395 -7.688,6.396 -7.687,6.395 -7.688,6.395 -7.688,6.396 -7.687,6.395 -7.688,6.395 -7.688,6.395 -7.687,6.396 -7.688,6.395 -7.688,6.395 -7.687,6.396 -7.688,6.395 -7.688,6.395 -7.687,6.396 -7.688,6.395 -7.688,6.395 -7.687,6.395 -7.688,6.396 -7.688,6.395 -7.687,6.395 -7.688,6.396 -7.688,6.395 -7.687,6.395 -7.688,6.395 -7.688,6.396 -7.687,6.395 -7.688,6.395 -3.493,2.906"
         id="path29" />
      <path
         fill="none"
         stroke-width="3"
         stroke-linecap="butt"
         stroke-opacity="1"
         stroke="#000000"
         stroke-linejoin="round"
         d="m 1359.293,393.549 2.447,4.631 4.673,8.842 4.672,8.841 4.672,8.841 4.672,8.842 4.673,8.841 4.672,8.842 2.256,4.269 0.834,1.579 4.429,8.381 1.59,3.008 4.672,8.841 4.672,8.841 4.673,8.842 4.672,8.841 4.672,8.842 4.672,8.841 3.666,6.937 0.554,1.048 3.161,5.982 0.094,0.178 4.672,8.841 4.673,8.842 2.539,4.805 1.668,3.156 2.392,4.527 2.806,5.31 4.673,8.841 4.672,8.842 4.672,8.841 4.672,8.842 4.11,7.776 2.346,4.44 2.047,3.873 2.128,4.027 1.879,3.556 0.204,0.386 0.287,0.543 4.672,8.841 1.893,3.583 -0.778,-9.97 -0.778,-9.97 -0.778,-9.969 -0.779,-9.97 -0.778,-9.97 -0.778,-9.969 -0.779,-9.97 -0.778,-9.97 -0.778,-9.969 -0.778,-9.97 -0.779,-9.97 -0.778,-9.969 -0.778,-9.97 -0.778,-9.97 -0.779,-9.969 -0.778,-9.97 -0.778,-9.97 -0.779,-9.969 -0.778,-9.97 -0.778,-9.97 -0.778,-9.969 -0.779,-9.97 -0.778,-9.97 -0.778,-9.969 -0.778,-9.97 -0.779,-9.97 -0.778,-9.969 -0.778,-9.97 -0.778,-9.97 -0.779,-9.969 -0.756,-9.682 -6.555,-7.552 -6.555,-7.552 -6.555,-7.551 -6.556,-7.552 -6.555,-7.552 -6.555,-7.552 -6.555,-7.551 -6.556,-7.552 -6.555,-7.552 -6.555,-7.551 -6.556,-7.552 -6.555,-7.552 -6.555,-7.551 -6.555,-7.552 -6.556,-7.552 -6.555,-7.552 -6.555,-7.551 -6.556,-7.552 -6.555,-7.552 -6.555,-7.551 -6.556,-7.552 -6.555,-7.552 -6.555,-7.551 -6.555,-7.552 -6.556,-7.552 -6.555,-7.552 -6.555,-7.551 -6.555,-7.552 -6.556,-7.552 -6.555,-7.551 -3.674,-4.233"
         id="path30" />
      <path
         fill="none"
         stroke-width="3"
         stroke-linecap="butt"
         stroke-opacity="1"
         stroke="#000000"
         stroke-linejoin="round"
         d="m 1086.323,509.525 -1.589,-9.873 -1.589,-9.873 -1.589,-9.873 -1.59,-9.873 -1.589,-9.872 -1.589,-9.873 -1.589,-9.873 -1.59,-9.873 -1.589,-9.873 -1.589,-9.873 -1.589,-9.873 -1.589,-9.873 -1.59,-9.873 -1.589,-9.873 -0.724,-4.499 -0.469,-2.916 -0.557,-3.456 -0.386,-2.4 -1.589,-9.873 -1.589,-9.873 -1.59,-9.873 -1.589,-9.873 -1.589,-9.873 -1.096,-6.811 -0.877,-5.448 -0.285,-1.77 -0.823,-5.112 -1.589,-9.873 -1.59,-9.873 -1.589,-9.873 -1.589,-9.873 -1.589,-9.873 -1.589,-9.873 -1.59,-9.872 -1.589,-9.873 -1.692,-10.516 8.448,5.35 8.449,5.35 8.448,5.35 8.449,5.35 8.448,5.35 8.449,5.35 4.376,2.771 3.211,2.033 1.113,0.705 3.433,2.174 8.448,5.35 8.449,5.35 8.449,5.35 8.448,5.35 8.449,5.35 8.448,5.35 8.449,5.349 8.448,5.35 8.449,5.35 8.448,5.35 8.449,5.35 8.449,5.35 8.448,5.35 8.078,5.115 2.142,1.357 8.449,5.35 3.705,2.346 0.36,0.228 8.449,5.35 8.448,5.35 8.449,5.35 8.448,5.35 8.449,5.35 8.448,5.35 1.74,1.101 1.901,1.204 3.917,2.481 1.238,0.783 8.448,5.35 8.449,5.35 8.449,5.35 8.448,5.35 8.449,5.35 8.448,5.35 0.59,0.373 -9.116,4.112 -9.115,4.112 -9.116,4.112 -7.572,3.415 -1.085,0.489 -5.724,2.582 -2.04,0.921 -9.116,4.112 -5.798,2.615 -0.08,0.036 -5.509,2.485 -1.037,0.468 -9.115,4.111 -9.116,4.112 -6.917,3.12 -5.141,2.319 -5.429,2.449 -5.917,2.669"
         id="path31" />
      <path
         fill="none"
         stroke-width="3"
         stroke-linecap="butt"
         stroke-opacity="1"
         stroke="#000000"
         stroke-linejoin="round"
         d="m 1086.323,509.525 -3.072,8.977"
         id="path32" />
      <path
         fill="none"
         stroke-width="3"
         stroke-linecap="butt"
         stroke-opacity="1"
         stroke="#000000"
         stroke-linejoin="round"
         d="m 1083.251,518.502 9.11,-4.124 9.11,-4.124 9.11,-4.123 9.111,-4.124 9.11,-4.124 9.11,-4.124 9.11,-4.124 9.11,-4.123 9.11,-4.124 9.11,-4.124 9.111,-4.124 9.11,-4.123 9.11,-4.124 9.11,-4.124 9.11,-4.124 7.631,-3.454 9.11,-4.124 7.37,-3.336 9.11,-4.123 9.11,-4.124 9.11,-4.124 7.448,-3.371 6.626,-3 9.11,-4.123 9.11,-4.124 2.497,-1.13 8.867,-4.014 9.11,-4.124 9.111,-4.124 9.11,-4.124 8.009,-3.625 0.015,-0.007 8.936,-4.045"
         id="path33" />
      <path
         fill="none"
         stroke-width="3"
         stroke-linecap="butt"
         stroke-opacity="1"
         stroke="#000000"
         stroke-linejoin="round"
         d="m 1359.293,393.549 -9.998,0.21 -0.178,0.004 -0.115,0.002 -6.34,0.133"
         id="path34" />
      <path
         fill="none"
         stroke-width="3"
         stroke-linecap="butt"
         stroke-opacity="1"
         stroke="#000000"
         stroke-linejoin="round"
         d="m 1359.293,393.549 -1.328,-0.841 -3.972,-2.519 -7.158,-4.537 -0.498,-0.316 -8.446,-5.354 -8.446,-5.354 -8.446,-5.354 -8.446,-5.354 -8.446,-5.355 -8.446,-5.354 -1.192,-0.755 -1.243,-0.788 -3.934,-2.494 -1.909,-1.21 -8.446,-5.354 -8.446,-5.354 -8.446,-5.354 -8.446,-5.355 -8.446,-5.354 -8.446,-5.354 -8.446,-5.354 -8.659,-5.489 -0.361,-0.229 -8.446,-5.354 -3.74,-2.37 -2.148,-1.362 -8.446,-5.354 -8.446,-5.354 -8.446,-5.354 -8.446,-5.355 -8.446,-5.354 -8.446,-5.354 -8.446,-5.354 -8.446,-5.354 -8.446,-5.354 -8.445,-5.354 -8.447,-5.354 -7.059,-4.475 -3.441,-2.181 -1.116,-0.708 -3.218,-2.04 -8.446,-5.354 -8.446,-5.354 -8.446,-5.354 -8.446,-5.354 -8.446,-5.354 -8.446,-5.354 -6.551,-4.153 -2.159,-1.369 -6.636,-4.207 -1.469,-0.93 -5.271,-0.702 -4.489,-0.598 -9.913,-1.319 -9.912,-1.319 -9.913,-1.319 -9.913,-1.32 -9.912,-1.319 -9.913,-1.319 -9.912,-1.32 -9.913,-1.319 -9.913,-1.319 -9.912,-1.319 -9.913,-1.32 -9.912,-1.319 -5.453,-0.726 -4.035,-0.537 -3.302,-0.439 -4.518,-0.602 -9.913,-1.319 -4.611,-0.614 -2.055,-0.273 -5.573,-0.742 -1.195,-0.159 -9.913,-1.319 -9.913,-1.319 -2.928,-0.39 -0.081,-0.011 -9.913,-1.319 -4.763,-0.634 -3.58,-0.477 -9.913,-1.319 -9.912,-1.319 -9.913,-1.32 -9.913,-1.319 -9.912,-1.319 -9.913,-1.319 -9.912,-1.32 -9.913,-1.319 -9.913,-1.319 -9.912,-1.32 -9.913,-1.319 -9.361,-1.246 -3.603,-0.479 -4.937,-0.657 -1.486,-0.198 -0.592,-0.079 -1.294,-0.172 -4.324,-0.576 -1.104,-0.147 -2.756,-0.366"
         id="path35" />
      <path
         fill="none"
         stroke-width="3"
         stroke-linecap="butt"
         stroke-opacity="1"
         stroke="#000000"
         stroke-linejoin="round"
         d="m 1029.676,184.599 4.047,9.144 2.782,6.285"
         id="path36" />
      <path
         fill="none"
         stroke-width="3"
         stroke-linecap="butt"
         stroke-opacity="1"
         stroke="#000000"
         stroke-linejoin="round"
         d="m 1029.676,184.599 1.585,9.873 1.584,9.874 1.584,9.874 1.584,9.873 1.585,9.874 1.584,9.874 1.584,9.873 1.584,9.874 1.585,9.874 1.584,9.874 1.584,9.873 0.189,1.18 1.584,9.873 0.392,2.442 1.584,9.874 1.585,9.874 1.584,9.873 1.584,9.874 1.584,9.874 0.199,1.238 1.407,8.766 1.584,9.874 1.584,9.873 1.584,9.874 1.584,9.874 1.585,9.873 1.584,9.874 1.584,9.874 1.584,9.874 1.585,9.873 1.584,9.874 1.584,9.874 1.584,9.873 1.585,9.874 1.584,9.874 1.584,9.874 0.693,4.319"
         id="path37" />
      <path
         fill="none"
         stroke-width="3"
         stroke-linecap="butt"
         stroke-opacity="1"
         stroke="#000000"
         stroke-linejoin="round"
         d="m 1252.722,108.061 -3.031,1.029 -1.623,0.551 -9.469,3.214 -9.469,3.215 -9.47,3.214 -1.169,0.397 -5.011,1.701 -3.483,1.182 -3.095,1.051 -9.469,3.214 -9.469,3.215 -9.47,3.214 -9.469,3.215 -9.469,3.214 -9.47,3.215 -9.469,3.214 -9.469,3.215 -4.845,1.644 -0.595,0.202 -5.234,1.777 -1.629,0.553 -9.47,3.214 -9.469,3.215 -9.469,3.214 -9.47,3.215 -9.469,3.214 -0.483,0.164 -1.894,0.643 -9.469,3.214 -2.882,0.979 -0.958,0.325 -9.469,3.214 -9.469,3.215 -4.648,1.577 -3.703,-9.289 -1.184,-2.971 -0.199,-0.498 -2.561,-6.424 -0.392,-0.985 -3.703,-9.289 -3.703,-9.289 -3.703,-9.289 -3.703,-9.289 -3.703,-9.29 -3.703,-9.289 -3.703,-9.289 -3.704,-9.289 -2.491,-6.25 -0.039,-0.099 -2.341,-5.872 -0.419,-1.05 -3.703,-9.289 -3.703,-9.29 -3.703,-9.289 -2.241,-5.62 -1.14,-2.862 -0.996,-2.496 -1.779,-4.464 -3.415,-8.566 -0.603,-1.514 -0.772,-1.936"
         id="path38" />
      <path
         fill="none"
         stroke-width="3"
         stroke-linecap="butt"
         stroke-opacity="1"
         stroke="#000000"
         stroke-linejoin="round"
         d="m 1032.226,182.91 -2.55,1.689"
         id="path39" />
      <path
         fill="none"
         stroke-width="3"
         stroke-linecap="butt"
         stroke-opacity="1"
         stroke="#000000"
         stroke-linejoin="round"
         d="m 1029.676,184.599 9.469,-3.218 9.468,-3.217 8.864,-3.011 9.468,-3.218 5.725,-1.945 9.468,-3.217 9.468,-3.217 9.469,-3.217 9.468,-3.217 8.592,-2.92 7.455,-2.533 9.469,-3.217 9.468,-3.217 9.468,-3.217 9.469,-3.217 9.468,-3.217 9.468,-3.217 9.469,-3.217 9.468,-3.218 5.344,-1.815 9.468,-3.217 2.116,-0.719 9.469,-3.217 9.468,-3.218 9.468,-3.217 1.559,-0.529 1.469,-0.499 2.744,-0.933 1.98,-0.672 3.38,-1.149 8.158,-2.772"
         id="path40" />
      <path
         fill="none"
         stroke-width="3"
         stroke-linecap="butt"
         stroke-opacity="1"
         stroke="#000000"
         stroke-linejoin="round"
         d="m 1266.96,103.975 -8.781,2.52 -3.189,0.915 -2.268,0.651 -9.554,-2.952 -9.555,-2.953 -3.825,-1.182 -9.554,-2.953 -9.555,-2.952 -9.554,-2.952 -9.554,-2.953 -9.554,-2.953 -9.554,-2.952 -9.555,-2.952 -9.554,-2.953 -0.853,-0.263 -9.554,-2.953 -9.554,-2.952 -9.554,-2.953 -5.455,-1.686 -9.554,-2.952 -9.554,-2.952 -9.554,-2.953 -2.231,-0.689 -9.554,-2.953 -0.785,-0.242 -9.554,-2.953 -9.554,-2.952 -3.699,-1.143 -9.555,-2.953 -0.492,-0.152 -9.554,-2.953 -5.88,-1.817 -9.554,-2.952 -9.555,-2.953 -8.56,-2.645 -9.554,-2.953 -9.555,-2.952 -3.887,-1.201 -9.554,-2.953 -1.428,-0.441 -1.18,-1.756 -1.729,-2.573 -4.306,-6.408"
         id="path41" />
      <path
         fill="none"
         stroke-width="3"
         stroke-linecap="butt"
         stroke-opacity="1"
         stroke="#000000"
         stroke-linejoin="round"
         d="m 1266.96,103.975 -9.554,-2.953 -9.554,-2.953 -9.554,-2.953 -9.554,-2.953 -9.554,-2.953 -9.554,-2.953 -6.193,-1.915 -6.519,-2.015 -7.074,-2.186 -9.554,-2.953 -9.554,-2.953 -9.554,-2.953 -9.554,-2.954 -7.873,-2.433 -9.554,-2.953 -6.962,-2.152 -9.554,-2.953 -5.213,-1.612 -9.554,-2.953 -0.719,-0.222 -9.138,-2.824 -9.599,-2.968 -0.827,-0.255 -7.294,-2.254 -2.276,-0.704 -9.043,-2.795 -0.143,-0.044 -8.44,-2.609 -1.504,-0.465 -1.572,-0.486 -8.037,-2.484 -7.017,-2.169 -7.966,-2.462 -4.597,-1.421 -9.554,-2.954 -9.555,-2.953 -1.725,-0.533 -2.351,-0.727 -5.784,-1.788 -9.554,-2.953 -9.554,-2.953 -9.554,-2.953 -7.119,-2.2"
         id="path42" />
      <path
         fill="none"
         stroke-width="3"
         stroke-linecap="butt"
         stroke-opacity="1"
         stroke="#000000"
         stroke-linejoin="round"
         d="m 960.002,9.096 2.434,6.131 1.486,3.744 0.466,1.174 0.467,1.176 0.365,0.92 3.69,9.294 0.185,0.465 3.69,9.294 0.21,0.531 3.69,9.294 3.69,9.295 3.69,9.294 2.727,6.87 2.787,7.02 3.69,9.294 3.69,9.294 3.69,9.295 3.69,9.294 3.689,9.294 3.69,9.295 3.69,9.294 3.69,9.294 1.701,4.285 3.138,7.905 3.69,9.294 2.049,5.163"
         id="path43" />
      <path
         fill="none"
         stroke-width="3"
         stroke-linecap="butt"
         stroke-opacity="1"
         stroke="#000000"
         stroke-linejoin="round"
         d="m 1065.322,1042.884 0.125,-0.155 0.083,-0.103 1.347,-1.677 2.93,-3.649 0.216,-0.268 2.152,-2.679 2.651,-3.3 1.711,-2.131 3.362,-4.186 5.176,-6.443 1.626,-2.025 3.909,-4.866 0.435,-0.541 6.262,-7.797 6.262,-7.796 6.262,-7.797 6.263,-7.796 6.262,-7.796 6.262,-7.797 6.262,-7.796 6.263,-7.797 6.262,-7.796 6.262,-7.796 6.263,-7.797 6.262,-7.796 2.976,-3.705 2.657,-3.308 4.767,-5.935 1.829,-2.276 6.262,-7.797 6.262,-7.796 6.262,-7.797 6.263,-7.796 6.262,-7.796 6.262,-7.797 2.155,-2.682 0.363,-0.453 6.028,-7.504 0.702,-0.874 6.262,-7.797 6.263,-7.796 6.262,-7.796 6.262,-7.797 6.262,-7.796 6.263,-7.797 6.262,-7.796 3.601,-4.483 2.772,-3.452 3.205,-3.989 0.558,-2.659 1.9,-9.04 0.278,-1.322 2.056,-9.787 2.057,-9.786 2.056,-9.786 2.057,-9.787 2.056,-9.786 2.057,-9.786 0.844,-4.017 0.245,-1.167 2.056,-9.786 0.961,-4.57 0.407,-1.938 2.056,-9.786 2.057,-9.786 2.056,-9.786 1.534,-7.298 0.867,-4.127 0.145,-0.693 0.897,-4.264 2.056,-9.787 2.057,-9.786 2.056,-9.786 1.753,-8.345 0.566,-2.694 2.057,-9.786 0.948,-4.511 0.043,-0.206 2.057,-9.786 2.056,-9.787 2.057,-9.786 2.056,-9.786 2.056,-9.787 2.057,-9.786 2.056,-9.786 2.057,-9.786 2.056,-9.787 2.057,-9.786 2.056,-9.786 2.056,-9.786 2.057,-9.787 2.056,-9.786 1.085,-5.162 0.394,-1.872 1.1,-5.237 0.208,-0.99 2.056,-9.786 2.057,-9.786 1.066,-5.075 0.097,-0.46 1.962,-9.339 1.086,-5.167 -0.425,-1.332 -1.708,-5.358 -3.038,-9.527 -3.038,-9.528 -3.038,-9.527 -3.038,-9.527 -3.038,-9.528 -3.037,-9.527 -3.038,-9.528 -3.038,-9.527 -3.038,-9.527 -3.038,-9.528 -3.038,-9.527 -2.419,-7.586 -0.757,-2.375 -2.404,-7.54 -1.171,-3.673 -3.038,-9.528 -3.038,-9.527 -3.038,-9.528 -3.038,-9.527 -3.038,-9.527 -2.852,-8.945 -0.194,-0.61 -2.104,-6.596 -0.28,-0.879 -3.038,-9.527 -2.951,-9.255 -1.216,-3.815 -1.37,-4.296 -1.972,-6.185 -3.038,-9.527 -3.038,-9.528 -3.038,-9.527 -0.578,-1.813 -0.584,-1.832 -2.261,-7.092 -0.357,-1.118 -1.529,-4.797 -0.066,-0.206 -0.073,-0.229 -3.038,-9.527 -1.265,-3.968 -9.279,-3.727 -9.28,-3.727 -9.279,-3.728 -9.28,-3.727 -9.279,-3.727 -9.28,-3.727 -9.279,-3.728 -9.279,-3.727 -9.28,-3.727 -9.279,-3.727 -9.28,-3.728 -9.279,-3.727 -9.279,-3.727 -9.28,-3.727 -9.279,-3.727 -9.28,-3.728 -9.279,-3.727 -9.28,-3.727 -9.279,-3.728 -9.279,-3.727 -7.19,-2.888 -9.885,-1.51 -9.885,-1.511 -9.886,-1.51 -9.885,-1.51 -9.885,-1.511 -9.885,-1.51 -9.886,-1.511 -9.885,-1.51 -9.885,-1.511 -9.886,-1.51 -9.885,-1.511 -5.442,-0.831"
         id="path44" />
      <path
         fill="none"
         stroke-width="3"
         stroke-linecap="butt"
         stroke-opacity="1"
         stroke="#000000"
         stroke-linejoin="round"
         d="m 1266.96,103.975 -2.769,5.357 -2.332,4.512 -0.198,0.382 -0.233,0.452 -0.026,0.049 -0.171,0.332"
         id="path45" />
      <path
         fill="none"
         stroke-width="3"
         stroke-linecap="butt"
         stroke-opacity="1"
         stroke="#000000"
         stroke-linejoin="round"
         d="m 1456.284,333.614 -0.222,0.119 -0.091,0.049 -2.69,1.445 -0.098,0.053 -8.809,4.732 -8.81,4.732 -8.809,4.732 -8.81,4.732 -7.776,4.177 -3.03,1.627 -3.516,1.889 -1.698,0.912 -8.809,4.732 -8.81,4.732 -8.809,4.733 -8.81,4.732 -8.809,4.732 -0.718,0.385"
         id="path46" />
      <path
         fill="none"
         stroke-width="3"
         stroke-linecap="butt"
         stroke-opacity="1"
         stroke="#000000"
         stroke-linejoin="round"
         d="m 1347.387,405.24 4.61,-4.527 0.08,-0.078 7.135,-7.006 0.081,-0.08 8.783,-4.781 8.783,-4.781 8.783,-4.781 8.783,-4.781 8.783,-4.781 1.269,-0.691 8.222,-4.476 8.783,-4.781 8.783,-4.781 8.783,-4.781 8.783,-4.781 8.853,-4.819 0.089,-0.049 0.694,-0.378 v -0.002 l 4.559,-2.482 5.262,-2.864"
         id="path47" />
      <path
         fill="none"
         stroke-width="3"
         stroke-linecap="butt"
         stroke-opacity="1"
         stroke="#000000"
         stroke-linejoin="round"
         d="m 1460.531,343.86 1.796,-2.417 4.965,-6.684 -7.927,-0.825 -3.081,-0.32 -0.27,-0.31 -6.561,-7.547 -6.56,-7.547 -6.561,-7.547 -6.561,-7.547 -6.561,-7.547 -6.561,-7.547 -6.56,-7.547 -6.561,-7.547 -6.561,-7.547 -6.561,-7.547 -6.561,-7.547 -6.56,-7.546 -6.561,-7.547 -6.561,-7.547 -6.561,-7.547 -6.56,-7.547 -2.779,-3.197 -2.883,-3.316 -4.286,-4.929 -0.227,-0.262 -0.193,-0.222 -4.135,-4.757 -6.561,-7.546 -6.56,-7.547 -6.561,-7.547 -6.561,-7.547 -6.561,-7.547 -6.561,-7.547 -6.56,-7.547 -6.561,-7.547 -6.561,-7.547 -4.561,-5.246"
         id="path48" />
      <path
         fill="none"
         stroke-width="3"
         stroke-linecap="butt"
         stroke-opacity="1"
         stroke="#000000"
         stroke-linejoin="round"
         d="m 1074.182,26.542 0.01,5.49 10e-4,0.584"
         id="path49" />
      <path
         fill="none"
         stroke-width="3"
         stroke-linecap="butt"
         stroke-opacity="1"
         stroke="#000000"
         stroke-linejoin="round"
         d="m 1196.924,82.327 -9.269,-3.754 -9.269,-3.754 -9.268,-3.754 -9.269,-3.754 -9.268,-3.754 -9.269,-3.755 -9.268,-3.754 -9.269,-3.754 -9.269,-3.754 -9.268,-3.754 -4.805,-1.946 -9.269,-3.755 -9.268,-3.754 -0.189,-0.076 -6.515,-2.639 -7.235,-1.063 -1.214,-0.179 -0.605,-0.089 -9.894,-1.454 -9.894,-1.453 -1.698,-0.25 -9.893,-1.454 -9.894,-1.454 -9.894,-1.454 -9.894,-1.454 -2.51,-0.369"
         id="path50" />
      <path
         fill="none"
         stroke-width="3"
         stroke-linecap="butt"
         stroke-opacity="1"
         stroke="#000000"
         stroke-linejoin="round"
         d="m 491.29,257.408 8.462,-5.327 8.463,-5.328 8.463,-5.327 8.521,-5.365 3.229,-2.032 4.701,-2.959 8.463,-5.328 8.462,-5.327 8.463,-5.328 0.416,-0.262 8.463,-5.327 8.462,-5.328 8.463,-5.327 8.463,-5.328 8.462,-5.327 8.463,-5.328 8.463,-5.327 8.463,-5.327 8.462,-5.328 8.463,-5.327 8.463,-5.328 8.463,-5.327 8.462,-5.328 8.463,-5.327 2.232,-1.406 1.08,-0.679 4.538,-2.098 1.752,-0.809 7.217,-3.335 2.144,-0.991 0.089,-0.041 2.938,-1.358 9.077,-4.195 9.078,-4.194 9.077,-4.195 9.078,-4.195 9.078,-4.195 9.077,-4.195 9.078,-4.195 9.077,-4.195 9.078,-4.195 9.078,-4.195 2.434,-1.125 2.202,-1.018 5.295,-2.447 1.312,-0.606 9.077,-4.195 9.078,-4.194 9.078,-4.195 9.077,-4.195 9.078,-4.195 9.077,-4.195 9.078,-4.195 9.078,-4.195 4.359,-2.015 7.181,-3.318 6.258,-2.892 9.077,-4.195 2.095,-0.968 9.078,-4.195 9.078,-4.195 0.889,-0.411 9.077,-4.195 4.553,-2.103 2.709,-1.252 2.483,-1.148 9.077,-4.195 9.078,-4.195 0.969,-0.447 -9.871,1.603 -9.871,1.604 -9.87,1.603 -9.871,1.604 -9.87,1.603 -9.871,1.604 -9.871,1.603 -9.87,1.603 -9.871,1.604 -9.87,1.603 -9.871,1.604 -9.871,1.603 -9.87,1.604 -9.871,1.603 -9.87,1.604 -9.871,1.603 -9.871,1.604 -9.87,1.603 -9.871,1.604 -9.87,1.603 -9.871,1.603 -4.243,0.69 -5.819,8.133 -5.818,8.132 -0.286,0.4 -1.14,1.593 -1.661,2.322 -5.819,8.133 -3.33,4.653 -5.818,8.133 -5.819,8.133 -5.819,8.133 -5.818,8.132 -5.819,8.133 -5.819,8.133 -5.819,8.133 -3.149,4.402"
         id="path51" />
      <path
         fill="none"
         stroke-width="3"
         stroke-linecap="butt"
         stroke-opacity="1"
         stroke="#000000"
         stroke-linejoin="round"
         d="m 753.724,49.399 -2.908,4.137 -0.423,0.603 -2.04,2.902 -5.749,8.182 -5.75,8.181 -5.749,8.182 -5.75,8.182 -5.75,8.182 -5.749,8.182 -5.75,8.182 -5.749,8.181 -4.154,5.912 -1.74,2.475"
         id="path52" />
      <path
         fill="none"
         stroke-width="3"
         stroke-linecap="butt"
         stroke-opacity="1"
         stroke="#000000"
         stroke-linejoin="round"
         d="m 935.686,20.333 -9.875,1.577 -9.875,1.577 -9.875,1.578 -9.875,1.577 -9.874,1.577 -9.875,1.578 -9.875,1.577 -9.875,1.578 -9.875,1.577 -9.874,1.577 -9.875,1.578 -9.875,1.577 -5.826,0.931 -9.874,1.577 -9.875,1.578 -9.875,1.577 -9.875,1.577 -9.875,1.578 -2.062,0.329 -6.202,0.991 -1.131,-1.28 -4.117,-4.661"
         id="path53" />
      <path
         fill="none"
         stroke-width="3"
         stroke-linecap="butt"
         stroke-opacity="1"
         stroke="#000000"
         stroke-linejoin="round"
         d="m 499.302,261.263 -0.125,3.657 -0.011,0.321 -0.202,5.872 -0.343,9.994 -0.343,9.994 -0.342,9.994 -0.343,9.994 -0.343,9.994 -0.343,9.994 -0.343,9.994 -0.163,4.76 -0.343,9.994 -0.343,9.994 -0.343,9.994 -0.343,9.994 -0.342,9.994 -0.025,0.712"
         id="path54" />
      <path
         fill="none"
         stroke-width="3"
         stroke-linecap="butt"
         stroke-opacity="1"
         stroke="#000000"
         stroke-linejoin="round"
         d="m 667.91,155.947 -1.122,0.701 -8.482,5.298 -8.481,5.298 -8.482,5.297 -8.481,5.298 -8.482,5.298 -8.481,5.297 -8.481,5.298 -8.482,5.298 -8.481,5.297 -8.482,5.298 -8.481,5.297 -8.482,5.298 -8.481,5.298 -8.482,5.297 -8.481,5.298 -8.481,5.298 -9.186,5.737 -7.075,4.42 -8.482,5.297 -3.774,2.358 -0.353,0.22 -2.913,1.82 -2.774,-1.335 -5.238,-2.52"
         id="path55" />
      <path
         fill="none"
         stroke-width="3"
         stroke-linecap="butt"
         stroke-opacity="1"
         stroke="#000000"
         stroke-linejoin="round"
         d="m 412.112,591.367 2.307,-9.73 2.307,-9.731 2.307,-9.73 2.307,-9.73 2.307,-9.73 2.307,-9.731 2.307,-9.73 2.307,-9.73 2.307,-9.731 2.307,-9.73 2.307,-9.73 2.306,-9.73 2.307,-9.731 2.307,-9.73 2.307,-9.73 2.307,-9.73 2.307,-9.731 2.307,-9.73 2.307,-9.73 2.307,-9.73 2.307,-9.731 2.307,-9.73 2.307,-9.73 2.306,-9.73 2.307,-9.731 2.307,-9.73 2.307,-9.73 2.307,-9.731 2.307,-9.73 2.307,-9.73 2.307,-9.73 2.307,-9.731 2.307,-9.73 3.049,-12.86 -0.399,9.992 -0.398,9.992 -0.308,7.733 -0.124,3.094 -0.117,2.934 -0.398,9.992 -0.399,9.992 -0.069,1.73 -0.398,9.992 -0.399,9.993 -0.398,9.992 -0.398,9.992 -0.399,9.992 -0.398,9.992 -0.399,9.992 -0.398,9.992 -0.398,9.992 -0.273,6.828"
         id="path56" />
      <path
         fill="none"
         stroke-width="3"
         stroke-linecap="butt"
         stroke-opacity="1"
         stroke="#000000"
         stroke-linejoin="round"
         d="m 956.013,20.405 0.315,0.804 0.373,0.95 3.652,9.31 0.379,0.965 1.753,4.469 0.98,2.499 1.124,2.865 3.652,9.31 3.652,9.309 3.652,9.309 3.652,9.31 0.456,1.161 0.411,1.049 2.301,5.865 0.039,0.099 3.652,9.309 3.652,9.31 3.652,9.309 3.652,9.309 3.652,9.309 3.652,9.31 3.652,9.309 3.115,7.94 0.386,0.985 2.518,6.418 0.195,0.498 3.652,9.309 2.082,5.305"
         id="path57" />
      <path
         fill="none"
         stroke-width="3"
         stroke-linecap="butt"
         stroke-opacity="1"
         stroke="#000000"
         stroke-linejoin="round"
         d="m 960.002,9.096 -2.158,6.117 -1.553,4.402 -0.278,0.79 -2.799,1.297 -9.073,4.205 -9.072,4.205 -8.882,4.116 -9.073,4.205 -9.072,4.206 -6.344,2.94 -9.073,4.205 -9.073,4.205 -9.073,4.205 -9.073,4.205 -9.072,4.205 -9.073,4.205 -9.073,4.205 -9.073,4.205 -9.073,4.205 -9.073,4.205 -1.685,0.781 -8.74,4.051 -9.073,4.205 -9.073,4.205 -9.073,4.205 -9.073,4.205 -9.073,4.205 -9.072,4.205 -9.073,4.205 -9.073,4.206 -9.073,4.205 -9.073,4.205 -9.073,4.205 -3.526,1.634"
         id="path58" />
      <path
         fill="none"
         stroke-width="3"
         stroke-linecap="butt"
         stroke-opacity="1"
         stroke="#000000"
         stroke-linejoin="round"
         d="m 736.731,434.128 -1.588,-9.873 -1.589,-9.873 -1.588,-9.873 -1.547,-9.617 -0.839,-5.215 -1.589,-9.873 -0.067,-0.417 -0.255,-1.583 -0.007,-0.045 -0.214,-1.329 -0.452,-2.809 -0.004,-0.024 -0.125,-0.779 -0.62,-3.857 -0.726,-4.511 -1.513,-9.406 -1.589,-9.873 -1.588,-9.873 -1.589,-9.873 -1.588,-9.873 -1.589,-9.874 -1.588,-9.873 -1.588,-9.873 -1.589,-9.873 -1.588,-9.873 -1.589,-9.873 -1.588,-9.873 -1.588,-9.873 -1.589,-9.873 -1.588,-9.873 -1.589,-9.873 -1.265,-7.863 -0.005,-0.033 -0.968,-6.017 -0.236,-1.465 -1.588,-9.873 -1.589,-9.873 -1.588,-9.873 -1.588,-9.873 -0.534,-3.314 9.911,1.333 9.911,1.334 9.91,1.333 9.911,1.334 9.911,1.334 9.91,1.333 9.911,1.334 9.911,1.334 9.91,1.333 9.911,1.334 6.914,0.93 3.579,0.482 9.911,1.334 4.758,0.64 0.081,0.011 9.91,1.333 9.911,1.334 9.911,1.334 9.886,1.33 1.192,0.161 5.56,0.748 2.049,0.275 9.911,1.334 9.91,1.334 6.873,0.925 4.508,0.606 3.296,0.444 4.026,0.541 9.911,1.334 9.91,1.334 9.911,1.333 9.911,1.334 9.91,1.334 9.911,1.333 9.911,1.334 9.91,1.334 9.911,1.333 9.911,1.334 9.91,1.334 5.515,0.742 -7.571,6.532 -7.571,6.533 -7.571,6.533 -7.572,6.533 -7.571,6.532 -7.571,6.533 -7.571,6.533 -7.572,6.532 -7.269,6.273 -2.33,2.01 -1.904,1.643 -2.602,2.245 -7.571,6.533 -7.571,6.532 -7.572,6.533 -7.571,6.533 -7.571,6.532 -7.571,6.533 -7.572,6.533 -7.571,6.532 -7.571,6.533 -7.571,6.533 -7.572,6.533 -7.571,6.532 -7.571,6.533 -7.571,6.533 -7.572,6.532 -7.571,6.533 -2.779,2.398 -2.929,2.527 -4.051,3.496 -3.64,3.14 -7.571,6.533 -7.571,6.533 -7.571,6.532 -7.572,6.533 -7.571,6.533 -4.694,4.05 -2.983,2.574 -0.963,0.831 -2.792,2.408 -7.571,6.533 -7.571,6.533 -6.27,5.41"
         id="path59" />
      <path
         fill="none"
         stroke-width="3"
         stroke-linecap="butt"
         stroke-opacity="1"
         stroke="#000000"
         stroke-linejoin="round"
         d="m 690.82,148.764 -2.176,-2.287 -0.212,-0.223 -0.431,-0.452 -0.199,-0.21 -1.185,-1.244 -5.894,-6.192"
         id="path60" />
      <path
         fill="none"
         stroke-width="3"
         stroke-linecap="butt"
         stroke-opacity="1"
         stroke="#000000"
         stroke-linejoin="round"
         d="m 729.227,443.917 6.084,-7.937 1.42,-1.852"
         id="path61" />
      <path
         fill="none"
         stroke-width="3"
         stroke-linecap="butt"
         stroke-opacity="1"
         stroke="#000000"
         stroke-linejoin="round"
         d="m 729.227,443.917 7.57,-6.534 7.57,-6.534 7.57,-6.534 7.77,-6.706 6.734,-5.812 7.571,-6.534 7.57,-6.534 7.57,-6.534 7.57,-6.534 7.57,-6.534 7.32,-6.317 7.57,-6.534 3.043,-2.626 7.571,-6.534 7.57,-6.534 7.57,-6.534 7.57,-6.534 7.57,-6.534 7.571,-6.534 7.57,-6.533 7.57,-6.534 7.57,-6.534 7.571,-6.534 7.57,-6.534 7.57,-6.534 7.57,-6.534 7.571,-6.534 7.57,-6.533 7.527,-6.497 6.83,-5.895 7.571,-6.534 7.57,-6.534 7.57,-6.534 7.57,-6.534 7.57,-6.534 7.571,-6.534 7.57,-6.534 7.57,-6.533 7.57,-6.534 7.571,-6.534 3.837,-3.312"
         id="path62" />
      <path
         fill="none"
         stroke-width="3"
         stroke-linecap="butt"
         stroke-opacity="1"
         stroke="#000000"
         stroke-linejoin="round"
         d="m 1024.291,200.813 3.152,-9.49 2.233,-6.724 -8.519,5.236 -4.512,2.774"
         id="path63" />
      <path
         fill="none"
         stroke-width="3"
         stroke-linecap="butt"
         stroke-opacity="1"
         stroke="#000000"
         stroke-linejoin="round"
         d="m 1073.705,510.619 -0.031,-0.006 -4.148,-0.873 -9.785,-2.059 -9.786,-2.06 -9.786,-2.059 -9.785,-2.059 -9.786,-2.06 -9.786,-2.059 -9.785,-2.059 -9.786,-2.06 -9.786,-2.059 -9.785,-2.059 -9.786,-2.06 -9.786,-2.059 -9.785,-2.059 -9.226,-1.942 -4.138,-0.871 -1.059,-0.223 -3.927,-0.826 -9.786,-2.059 -9.786,-2.06 -9.785,-2.059 -9.786,-2.059 -9.786,-2.06 -9.785,-2.059 -9.786,-2.059 -9.785,-2.059 -9.786,-2.06 -9.786,-2.059 -9.785,-2.059 -9.786,-2.06 -7.376,-1.552 -6.008,-1.264 -1.94,-0.408 -5.631,-1.186 -9.786,-2.059 -9.786,-2.059 -9.785,-2.06 -9.786,-2.059 -0.793,-0.167 7.566,-6.538 7.567,-6.538 4.518,-3.904 2.785,-2.407 0.961,-0.83 2.976,-2.572 7.567,-6.538 7.567,-6.538 7.566,-6.538 7.567,-6.538 7.567,-6.538 7.566,-6.538 7.567,-6.538 1.552,-1.341 3.629,-3.136 4.04,-3.49 2.92,-2.524 7.567,-6.538 7.567,-6.538 7.566,-6.538 7.567,-6.538 7.567,-6.538 7.566,-6.538 7.567,-6.538 7.567,-6.538 7.566,-6.538 7.567,-6.538 7.566,-6.538 7.567,-6.538 7.567,-6.538 7.566,-6.538 5.02,-4.338 2.593,-2.24 1.898,-1.64 2.322,-2.006 7.566,-6.538 7.567,-6.538 7.566,-6.538 7.567,-6.538 7.567,-6.538 7.566,-6.539 7.567,-6.538 7.567,-6.538 7.566,-6.538 1.301,-1.123 1.575,9.875 1.575,9.875 1.575,9.875 1.575,9.875 1.575,9.876 1.575,9.875 1.575,9.875 1.575,9.875 1.576,9.875 1.575,9.875 0.599,3.76 0.813,5.095 0.281,1.764 0.866,5.43 1.575,9.875 1.575,9.875 1.576,9.875 1.575,9.876 0.139,0.874 0.382,2.395 0.55,3.449 0.464,2.909 1.575,9.876 1.576,9.875 1.575,9.875 1.575,9.875 1.575,9.875 1.575,9.876 1.575,9.875 1.575,9.875 1.575,9.875 1.575,9.875 1.575,9.875 1.576,9.876 1.001,6.28 1.575,9.875 0.486,3.044 1.304,8.176"
         id="path64" />
      <path
         fill="none"
         stroke-width="3"
         stroke-linecap="butt"
         stroke-opacity="1"
         stroke="#000000"
         stroke-linejoin="round"
         d="m 745.644,441.581 -9.901,1.409 -6.516,0.927"
         id="path65" />
      <path
         fill="none"
         stroke-width="3"
         stroke-linecap="butt"
         stroke-opacity="1"
         stroke="#000000"
         stroke-linejoin="round"
         d="m 729.227,443.917 9.785,2.061 9.785,2.062 9.785,2.061 9.785,2.062 9.786,2.061 9.785,2.062 3.218,0.678 9.785,2.061 3.781,0.797 9.785,2.061 9.785,2.062 9.785,2.061 9.785,2.062 9.786,2.062 9.785,2.061 9.785,2.062 9.785,2.061 9.785,2.062 9.786,2.061 9.785,2.062 8.343,1.757 9.12,1.922 9.785,2.061 9.785,2.062 9.786,2.061 9.785,2.062 9.785,2.061 9.785,2.062 9.785,2.062 9.786,2.061 9.785,2.062 9.785,2.061 9.785,2.062 9.785,2.061 9.786,2.062 9.785,2.061 5.427,1.144 9.786,2.061 0.456,0.096 0.767,0.162"
         id="path66" />
      <path
         fill="none"
         stroke-width="3"
         stroke-linecap="butt"
         stroke-opacity="1"
         stroke="#000000"
         stroke-linejoin="round"
         d="m 1083.251,518.502 -1.072,-0.885 -7.711,-6.367 -0.763,-0.631"
         id="path67" />
      <path
         fill="none"
         stroke-width="3"
         stroke-linecap="butt"
         stroke-opacity="1"
         stroke="#000000"
         stroke-linejoin="round"
         d="m 1347.387,405.24 -2.059,9.786 -2.059,9.786 -0.786,3.734 -0.207,0.986 -1.097,5.214 -0.393,1.865 -2.059,9.786 -2.059,9.785 -2.059,9.786 -2.059,9.786 -2.059,9.785 -2.059,9.786 -2.059,9.786 -2.06,9.786 -2.059,9.785 -2.059,9.786 -2.059,9.786 -2.059,9.785 -1.51,7.175 -0.043,0.206 -2.059,9.786 -0.944,4.484 -0.565,2.688 -2.059,9.786 -2.059,9.786 -2.06,9.786 -2.059,9.785 -2.059,9.786 -1.99,9.458 -0.895,4.254 -0.145,0.691 -0.867,4.116 -2.059,9.786 -2.059,9.786 -2.059,9.786 -2.059,9.785 -2.059,9.786 -1.664,7.906 -0.408,1.939 -2.059,9.785 -0.963,4.578 -0.245,1.167 -2.059,9.786 -2.06,9.785 -2.059,9.786 -2.059,9.786 -0.487,2.318 -6.021,-7.985 -4.829,-6.404 -0.305,-0.405 -3.758,-4.984 -0.508,-0.673 -6.02,-7.984 -6.021,-7.985 -6.02,-7.985 -6.021,-7.984 -6.02,-7.985 -6.021,-7.984 -6.02,-7.985 -6.021,-7.984 -6.02,-7.985 -6.021,-7.985 -6.02,-7.984 -6.021,-7.985 -6.02,-7.984 -6.021,-7.985 -4.336,-5.751 -3.569,-4.733 -0.598,-0.793 -3.678,-4.878 -6.02,-7.984 -6.021,-7.985 -6.02,-7.984 -2.533,-3.36 -1.672,-2.217 -1.769,-2.346 -1.931,-2.561 -6.021,-7.985 -6.02,-7.984 -6.021,-7.985 -6.02,-7.984 -6.021,-7.985 -6.02,-7.985 -6.021,-7.984 -1.042,-1.383 9.105,-4.135 9.105,-4.134 9.106,-4.134 9.105,-4.135 9.105,-4.134 9.106,-4.134 9.105,-4.135 9.105,-4.134 9.106,-4.134 9.105,-4.134 9.105,-4.135 9.106,-4.134 9.105,-4.134 9.105,-4.135 1.479,-0.671 5.912,-2.684 5.424,-2.463 5.138,-2.333 9.105,-4.134 9.105,-4.135 9.106,-4.134 9.105,-4.134 6.842,-3.107 1.038,-0.471 5.509,-2.502 0.08,-0.036 9.105,-4.134 9.105,-4.134 7.589,-3.446 2.048,-0.93 5.745,-2.608 1.089,-0.495 9.105,-4.134 9.106,-4.134 7.814,-3.549"
         id="path68" />
      <path
         fill="none"
         stroke-width="3"
         stroke-linecap="butt"
         stroke-opacity="1"
         stroke="#000000"
         stroke-linejoin="round"
         d="m 1272.405,761.591 3.699,9.29 2.552,6.408"
         id="path69" />
      <path
         fill="none"
         stroke-width="3"
         stroke-linecap="butt"
         stroke-opacity="1"
         stroke="#000000"
         stroke-linejoin="round"
         d="m 1083.251,518.502 8.113,2.987"
         id="path70" />
      <path
         fill="none"
         stroke-width="3"
         stroke-linecap="butt"
         stroke-opacity="1"
         stroke="#000000"
         stroke-linejoin="round"
         d="m 1083.251,518.502 6.026,7.98 6.026,7.981 6.026,7.98 6.026,7.981 6.026,7.98 6.025,7.981 6.026,7.98 6.248,8.275 5.371,7.113 6.026,7.981 6.026,7.98 4.802,6.36 6.026,7.98 1.817,2.407 6.026,7.98 6.026,7.981 6.026,7.98 6.026,7.981 6.026,7.98 6.026,7.981 6.026,7.98 6.025,7.981 6.026,7.98 6.026,7.981 6.026,7.98 6.026,7.981 6.026,7.98 6.026,7.981 6.026,7.98 2.096,2.777 4.574,6.058 6.026,7.98 6.026,7.981 6.026,7.98 1.771,2.345"
         id="path71" />
      <path
         fill="none"
         stroke-width="3"
         stroke-linecap="butt"
         stroke-opacity="1"
         stroke="#000000"
         stroke-linejoin="round"
         d="m 1479.855,640.444 -0.237,0.148 -8.484,5.293 -8.484,5.294 -8.484,5.293 -8.484,5.293 -8.484,5.294 -4.405,2.748 -4.491,2.802 -3.832,2.39 -2.672,1.667 -8.484,5.294 -8.484,5.293 -8.484,5.293 -8.484,5.294 -8.484,5.293 -8.484,5.293 -8.867,5.532 -0.541,0.338 -4.792,2.99 -1.49,0.93 -8.485,5.293 -8.484,5.293 -8.484,5.294 -8.484,5.293 -8.484,5.293 -8.484,5.294 -8.484,5.293 -8.484,5.293 -5.939,3.706"
         id="path72" />
      <path
         fill="none"
         stroke-width="3"
         stroke-linecap="butt"
         stroke-opacity="1"
         stroke="#000000"
         stroke-linejoin="round"
         d="m 1491.396,643.531 -5.719,-1.53 -5.235,-1.4 -0.182,-0.049 -0.292,-0.078 -0.07,-0.019 -0.043,-0.011 -4.696,-8.829 -4.696,-8.829 -4.696,-8.828 -4.696,-8.829 -4.696,-8.829 -4.696,-8.829 -1.373,-2.581 -4.697,-8.829 -2.185,-4.109 -4.696,-8.828 -4.696,-8.829 -4.696,-8.829 -1.402,-2.635 -3.811,-7.164 -4.696,-8.829 -4.696,-8.829 -4.696,-8.828 -4.696,-8.829 -4.696,-8.829 -4.696,-8.829 -4.697,-8.828 -4.696,-8.829 -2.501,-4.703 -4.696,-8.828 -2.172,-4.083 -4.696,-8.829 -4.696,-8.829 -4.696,-8.829 -4.696,-8.828 -2.156,-4.053"
         id="path73" />
      <path
         fill="none"
         stroke-width="3"
         stroke-linecap="butt"
         stroke-opacity="1"
         stroke="#000000"
         stroke-linejoin="round"
         d="m 1168.337,1034.972 -9.922,1.243 -9.923,1.242 -9.922,1.243 -9.923,1.243 -9.922,1.242 -9.923,1.243 -9.922,1.243 -9.923,1.242 -9.922,1.243 -9.923,1.243 -9.922,1.242 -9.923,1.243 -9.922,1.242 -9.923,1.243 -9.922,1.243 -9.923,1.242 -9.922,1.243 -9.923,1.243 -9.922,1.242 -9.923,1.243 -9.922,1.243 -9.923,1.242 -9.922,1.243 -9.923,1.243 -9.922,1.242 -9.923,1.243 -9.922,1.242 -9.923,1.243 -9.922,1.243 -9.923,1.242 -9.922,1.243 -9.923,1.243 -8.622,1.079 -8.679,-4.968 -8.679,-4.968 -8.678,-4.968 -8.679,-4.968 -8.678,-4.968 -8.679,-4.969 -8.678,-4.968 -8.679,-4.968 -8.678,-4.968 -8.679,-4.968 -8.678,-4.969 -8.679,-4.968 -8.679,-4.968 -8.678,-4.968 -8.679,-4.968 -8.678,-4.968 -8.679,-4.969 -8.678,-4.968 -8.679,-4.968 -8.678,-4.968 -8.679,-4.968 -8.678,-4.969 -8.679,-4.968 -8.679,-4.968 -8.678,-4.968 -8.679,-4.968 -8.678,-4.968 -8.679,-4.969 -8.678,-4.968 -8.679,-4.968 -8.678,-4.968 -8.679,-4.968 -8.678,-4.969 -6.878,-3.937 -0.438,-9.99 -0.219,-5.001 -0.091,-2.092 -0.034,-0.755 -0.093,-2.126 -0.438,-10.014 -0.438,-9.99 -0.082,-1.858 -0.406,-9.269 -0.437,-9.99 -0.438,-9.99 -0.438,-9.991 -0.437,-9.99 -0.438,-9.991 -0.438,-9.99 -0.438,-9.99 -0.437,-9.991 -0.438,-9.99 -0.119,-2.712 -0.154,-3.519 -0.33,-7.531 -0.047,-1.086 -0.438,-9.99 -0.188,-4.284 -0.909,-5.307 -1.69,-9.856 -0.268,-1.567 -0.247,-1.438 -0.101,-0.592 -0.721,-4.205 -0.09,-0.526 -0.804,-4.687 -1.689,-9.857 -1.689,-9.856 -1.69,-9.856 -1.689,-9.856 -1.69,-9.857 -1.689,-9.856 -1.69,-9.856 -1.689,-9.856 -1.689,-9.857 -1.69,-9.856 -1.689,-9.856 -1.69,-9.856 -1.689,-9.857 -1.689,-9.856 -0.316,-1.841 -0.994,-5.798 -1.689,-9.857 -1.69,-9.856 -1.689,-9.856 -0.255,-1.49 -1.69,-9.856 -1.129,-6.586 -1.689,-9.856 -1.69,-9.857 -1.689,-9.856 -1.314,-7.665 -0.159,-0.927 -1.329,-7.756 -0.479,-2.792 -1.689,-9.856 -1.69,-9.856 -1.689,-9.856 -1.388,-8.1 -0.679,-3.963 -1.423,-8.299 -1.411,-8.23 -3.732,9.277 -3.732,9.278 -3.732,9.277 -3.732,9.278 -3.732,9.277 -3.732,9.278 -3.732,9.277 -3.731,9.278 -3.732,9.277 -3.732,9.278 -3.732,9.277 -3.732,9.278 -1.519,3.774 -3.732,9.278 -3.732,9.277 -3.008,7.479 -1.418,3.524 -1.494,3.716 -3.732,9.278 -3.732,9.277 -3.732,9.278 -2.226,5.532 6.621,7.494 4.829,5.467 1.597,1.807 0.576,0.652 5.615,6.357 3.648,4.129 6.62,7.494 6.621,7.495 5.957,6.743 6.62,7.494 1.755,1.987 6.621,7.494 6.621,7.495 6.62,7.494 6.621,7.495 6.621,7.494 6.62,7.494 3.479,3.939 2.682,3.036 5.053,5.719 0.942,1.066 6.62,7.495 1.441,1.631 3.173,3.591 0.356,0.403 3.238,3.666 6.621,7.495 5.571,6.306"
         id="path74" />
      <path
         fill="none"
         stroke-width="3"
         stroke-linecap="butt"
         stroke-opacity="1"
         stroke="#000000"
         stroke-linejoin="round"
         d="m 496.014,417.999 0.801,0.114 3.795,0.542 2.617,0.374 4.765,0.681 1.2,0.171 9.899,1.415 1.448,0.206 2.468,0.353 5.417,0.774 0.737,0.105 9.9,1.414 9.899,1.415 9.9,1.414 9.899,1.414 3.401,0.486 3.825,0.546 8.978,1.283 5.147,0.735 9.899,1.415 9.9,1.414 9.899,1.414 9.9,1.414 9.899,1.415 9.9,1.414 9.899,1.414 9.9,1.414 9.899,1.415 9.9,1.414 9.899,1.414 9.9,1.414 1.296,0.186 1.208,0.172 4.492,0.642 1.972,0.282 4.522,0.646 -5.38,8.429 -1.902,2.979 -3.177,4.977 -5.381,8.43 -1.86,2.913 -1.947,3.051 -5.381,8.429 -5.38,8.429 -5.381,8.43 -5.381,8.429 -5.38,8.429 -5.381,8.429 -5.38,8.429 -5.381,8.429 -5.38,8.429 -5.381,8.429 -5.38,8.429 -5.381,8.429 -5.381,8.43 -4.778,7.485 -0.958,1.501 -2.973,4.658 -0.499,0.782 -5.381,8.429 -5.381,8.429 -5.38,8.429 -5.381,8.43 -5.38,8.429 -5.381,8.429 -5.38,8.429 -5.381,8.429 -5.38,8.429 -5.381,8.429 -4.077,6.387 -4.588,7.187 -0.516,0.81 -4.726,7.403 -5.381,8.429 -1.437,2.252 -0.627,0.982"
         id="path75" />
      <path
         fill="none"
         stroke-width="3"
         stroke-linecap="butt"
         stroke-opacity="1"
         stroke="#000000"
         stroke-linejoin="round"
         d="m 485.22,409.624 7.901,6.13 0.412,0.32 0.704,0.546 1.777,1.379 1.694,9.855 1.695,9.855 1.694,9.856 1.566,9.103 0.146,0.853 1.695,9.855 0.111,0.649 1.695,9.856 1.695,9.855 1.694,9.855 1.695,9.856 0.512,2.982 1.695,9.856 1.695,9.855 1.694,9.855 1.695,9.856 1.694,9.855 1.695,9.856 1.694,9.855 1.695,9.855 1.695,9.856 1.694,9.855 1.695,9.855 1.694,9.856 1.695,9.855 1.694,9.856 1.695,9.855 1.694,9.855 1.695,9.856 1.695,9.855 1.694,9.855 1.334,7.758 1.695,9.855 0.018,0.107 1.283,7.464 -2.319,4.975 -0.298,0.639 -4.225,9.063 -0.12,0.257"
         id="path76" />
      <path
         fill="none"
         stroke-width="3"
         stroke-linecap="butt"
         stroke-opacity="1"
         stroke="#000000"
         stroke-linejoin="round"
         d="m 555.629,731.873 -4.34,1.816 -0.033,0.014 -0.207,0.087 -0.025,0.01 -9.225,3.862 -0.328,0.137 5.353,-8.379 0.292,-0.457 2.038,-3.19 0.453,-0.709 5.384,-8.427 4.62,-7.231 5.384,-8.427 4.439,-6.948 5.384,-8.427 5.384,-8.427 5.384,-8.427 5.383,-8.427 5.384,-8.427 5.384,-8.427 5.384,-8.427 5.384,-8.427 5.384,-8.427 5.383,-8.427 1.805,-2.825 4.43,-6.934 5.384,-8.427 5.384,-8.427 5.384,-8.427 5.383,-8.427 5.384,-8.427 5.384,-8.427 5.384,-8.427 5.384,-8.427 5.384,-8.427 5.383,-8.427 5.384,-8.427 5.384,-8.427 5.384,-8.427 1.732,-2.712 5.384,-8.427 5.384,-8.427 1.594,-2.495 5.384,-8.427 5.384,-8.427 4.868,-7.619"
         id="path77" />
      <path
         fill="none"
         stroke-width="3"
         stroke-linecap="butt"
         stroke-opacity="1"
         stroke="#000000"
         stroke-linejoin="round"
         d="m 729.227,443.917 -6.833,6.423"
         id="path78" />
      <path
         fill="none"
         stroke-width="3"
         stroke-linecap="butt"
         stroke-opacity="1"
         stroke="#000000"
         stroke-linejoin="round"
         d="m 880.347,807.339 -9.74,-2.264 -9.741,-2.263 -9.74,-2.264 -9.741,-2.264 -9.74,-2.263 -9.74,-2.264 -9.741,-2.264 -9.74,-2.264 -9.741,-2.263 -9.74,-2.264 -9.74,-2.264 -9.741,-2.264 -9.74,-2.263 -9.741,-2.264 -9.74,-2.264 -9.74,-2.264 -9.741,-2.263 -9.74,-2.264 -9.741,-2.264 -8.974,-2.085 -1.649,-0.384 -5.682,-1.32 -0.771,-0.179 -9.74,-2.264 -9.741,-2.264 -9.74,-2.264 -9.74,-2.263 -9.741,-2.264 -9.74,-2.264 -9.741,-2.263 -9.74,-2.264 -9.74,-2.264 -9.741,-2.264 -9.74,-2.263 -9.741,-2.264 -5.689,-1.322 5.397,-8.419 5.397,-8.418 5.397,-8.419 2.86,-4.46 4.708,-7.344 0.515,-0.803 4.57,-7.129 5.397,-8.419 5.397,-8.418 5.397,-8.419 5.397,-8.418 5.397,-8.419 5.397,-8.418 5.397,-8.419 5.398,-8.418 3.405,-5.313 0.499,-0.778 2.971,-4.634 0.958,-1.494 5.397,-8.418 5.397,-8.419 5.397,-8.418 5.397,-8.419 5.397,-8.418 5.397,-8.419 5.397,-8.418 5.397,-8.419 5.397,-8.418 5.397,-8.419 5.705,-8.898 1.945,-3.034 5.397,-8.418 1.833,-2.86 3.173,-4.949 5.397,-8.418 5.397,-8.419 5.397,-8.418 5.397,-8.419 2.221,-3.463 3.922,9.198 3.922,9.199 3.923,9.198 3.922,9.199 3.922,9.199 3.923,9.198 3.922,9.199 3.923,9.199 3.922,9.198 3.922,9.199 3.923,9.199 3.922,9.198 3.922,9.199 3.923,9.198 3.038,7.125 1.672,3.921 0.121,0.285 1.696,3.978 3.923,9.199 3.922,9.198 3.923,9.199 3.922,9.199 3.922,9.198 3.923,9.199 3.922,9.199 3.923,9.198 3.922,9.199 3.922,9.199 3.923,9.198 3.922,9.199 3.922,9.198 3.923,9.199 3.922,9.199 3.923,9.198 3.922,9.199 1.84,4.316 1.454,3.408 2.779,6.519 0.977,2.292 3.923,9.198 3.922,9.199 3.923,9.198 2.093,4.91"
         id="path79" />
      <path
         fill="none"
         stroke-width="3"
         stroke-linecap="butt"
         stroke-opacity="1"
         stroke="#000000"
         stroke-linejoin="round"
         d="m 889.202,819.137 -3.143,-4.188 -5.181,-6.902 -0.531,-0.708"
         id="path80" />
      <path
         fill="none"
         stroke-width="3"
         stroke-linecap="butt"
         stroke-opacity="1"
         stroke="#000000"
         stroke-linejoin="round"
         d="m 889.202,819.137 -2.045,-4.795 -3.365,-7.894 -3.922,-9.199 -3.922,-9.198 -3.922,-9.199 -0.422,-0.991 -3.922,-9.199 -1.286,-3.015 -3.922,-9.199 -3.922,-9.199 -3.922,-9.199 -3.922,-9.199 -3.921,-9.198 -3.922,-9.199 -3.922,-9.199 -3.922,-9.199 -3.922,-9.199 -3.922,-9.199 -3.922,-9.198 -3.922,-9.199 -3.922,-9.199 -3.922,-9.199 -3.922,-9.199 -3.922,-9.199 -3.921,-9.198 -3.742,-8.775 -3.487,-8.179 -3.922,-9.199 -3.921,-9.199 -3.922,-9.199 -3.922,-9.198 -3.922,-9.199 -3.922,-9.199 -3.922,-9.199 -3.922,-9.199 -3.922,-9.199 -3.922,-9.198 -3.922,-9.199 -3.922,-9.199 -3.922,-9.199 -3.921,-9.199 -3.922,-9.199 -4.44,-10.413"
         id="path81" />
      <path
         fill="none"
         stroke-width="3"
         stroke-linecap="butt"
         stroke-opacity="1"
         stroke="#000000"
         stroke-linejoin="round"
         d="m 742.799,454.047 -8.014,-5.982 -5.558,-4.148 1.483,9.889 0.605,4.027"
         id="path82" />
      <path
         fill="none"
         stroke-width="3"
         stroke-linecap="butt"
         stroke-opacity="1"
         stroke="#000000"
         stroke-linejoin="round"
         d="m 1070.947,523.277 -5.42,8.404 -5.419,8.405 -5.42,8.404 -5.419,8.404 -5.42,8.404 -5.419,8.404 -5.42,8.404 -3.224,5.001 -2.417,3.747 -0.321,0.498 -2.352,3.648 -5.42,8.404 -5.419,8.404 -5.419,8.404 -5.42,8.404 -5.419,8.404 -5.42,8.405 -5.419,8.404 -5.42,8.404 -5.419,8.404 -5.42,8.404 -5.419,8.404 -5.42,8.404 -5.419,8.404 -5.42,8.405 -5.419,8.404 -5.42,8.404 -5.419,8.404 -5.419,8.404 -5.42,8.404 -5.419,8.404 -4.665,7.234 -3.209,4.976 -1.187,1.841 -2.977,4.617 -2.952,4.577 -1.186,1.84 -2.27,3.519 -0.798,1.238 -5.42,8.404 -0.499,0.775 -3.921,-9.199 -3.306,-7.758 -0.976,-2.289 -2.775,-6.51 -1.451,-3.405 -3.921,-9.199 -3.921,-9.199 -3.92,-9.2 -3.921,-9.199 -3.921,-9.199 -3.921,-9.2 -3.921,-9.199 -3.92,-9.199 -3.921,-9.2 -3.921,-9.199 -3.921,-9.199 -3.921,-9.199 -3.921,-9.2 -3.92,-9.199 -3.921,-9.199 -3.921,-9.2 -3.921,-9.199 -3.921,-9.199 -4.392,-10.305 -1.691,-3.969 -0.122,-0.285 -1.667,-3.913 -3.921,-9.199 -3.921,-9.199 -3.921,-9.2 -3.921,-9.199 -3.92,-9.199 -3.921,-9.199 -3.921,-9.2 -3.921,-9.199 -3.921,-9.199 -3.92,-9.2 -3.921,-9.199 -3.921,-9.199 -3.921,-9.2 -3.921,-9.199 -2.577,-6.046 9.785,2.064 9.784,2.064 9.785,2.065 9.785,2.064 9.784,2.064 6.436,1.358 5.619,1.185 1.936,0.409 5.993,1.264 9.785,2.065 9.784,2.064 9.785,2.064 9.785,2.065 9.784,2.064 9.785,2.064 9.784,2.064 9.785,2.065 9.785,2.064 9.784,2.064 7.059,1.489 3.922,0.828 1.059,0.223 4.133,0.872 9.785,2.065 9.785,2.064 9.784,2.064 9.785,2.065 9.785,2.064 9.784,2.064 9.785,2.065 9.784,2.064 9.785,2.064 9.785,2.064 9.784,2.065 9.785,2.064 9.784,2.064 9.785,2.065 8.237,1.737"
         id="path83" />
      <path
         fill="none"
         stroke-width="3"
         stroke-linecap="butt"
         stroke-opacity="1"
         stroke="#000000"
         stroke-linejoin="round"
         d="m 891.144,802.103 -0.038,0.332 -1.133,9.935 -0.051,0.445 -0.72,6.322"
         id="path84" />
      <path
         fill="none"
         stroke-width="3"
         stroke-linecap="butt"
         stroke-opacity="1"
         stroke="#000000"
         stroke-linejoin="round"
         d="m 889.202,819.137 5.423,-8.402 0.518,-0.804 5.423,-8.401 5.423,-8.402 5.423,-8.402 1.817,-2.814 5.423,-8.402 5.423,-8.402 5.423,-8.402 5.423,-8.402 5.423,-8.401 5.423,-8.402 5.423,-8.402 5.424,-8.402 5.423,-8.402 5.423,-8.401 5.423,-8.402 5.423,-8.402 5.423,-8.402 5.423,-8.402 5.423,-8.401 5.423,-8.402 5.423,-8.402 5.423,-8.402 5.423,-8.402 5.424,-8.401 5.423,-8.402 5.645,-8.747 5.096,-7.894 5.423,-8.402 5.423,-8.402 5.423,-8.402 5.423,-8.402 5.423,-8.401 5.423,-8.402 5.424,-8.402 1.366,-2.117 5.423,-8.402 0.222,-0.344 0.423,-0.655"
         id="path85" />
      <path
         fill="none"
         stroke-width="3"
         stroke-linecap="butt"
         stroke-opacity="1"
         stroke="#000000"
         stroke-linejoin="round"
         d="m 1081.871,529.992 1.192,-9.929 0.033,-0.271 0.155,-1.29 -0.601,0.233 -8.019,3.113 -3.684,1.429"
         id="path86" />
      <path
         fill="none"
         stroke-width="3"
         stroke-linecap="butt"
         stroke-opacity="1"
         stroke="#000000"
         stroke-linejoin="round"
         d="m 421.506,589.766 1.731,1.94 0.04,0.045 1.349,1.512 2.875,3.225 6.656,7.463 6.656,7.463 6.656,7.464 6.656,7.463 6.655,7.463 6.656,7.463 6.656,7.464 6.656,7.463 6.656,7.463 6.655,7.464 6.656,7.463 4.895,5.488 6.656,7.463 2.011,2.256 6.656,7.463 6.656,7.463 3.261,3.657 6.655,7.463 0.127,0.143 0.972,1.089"
         id="path87" />
      <path
         fill="none"
         stroke-width="3"
         stroke-linecap="butt"
         stroke-opacity="1"
         stroke="#000000"
         stroke-linejoin="round"
         d="m 488.054,426.153 -3.768,9.264 -3.768,9.263 -3.767,9.263 -3.768,9.263 -3.768,9.263 -3.767,9.263 -3.768,9.263 -3.768,9.263 -3.767,9.263 -3.768,9.263 -3.768,9.263 -3.767,9.263 -3.768,9.264 -3.768,9.263 -1.058,2.601 -3.767,9.263 -3.768,9.263 -0.388,0.954 -3.787,9.312 -0.007,0.016 -1.025,2.52 -3.645,0.621 -5.749,0.98"
         id="path88" />
      <path
         fill="none"
         stroke-width="3"
         stroke-linecap="butt"
         stroke-opacity="1"
         stroke="#000000"
         stroke-linejoin="round"
         d="m 556.846,903.031 2.897,1.362 0.078,0.036 9.05,4.254 0.416,0.195 9.05,4.254 6.123,2.877 9.05,4.254 9.051,4.253 9.05,4.254 9.05,4.253 9.051,4.254 9.05,4.253 9.05,4.254 9.05,4.253 9.051,4.253 9.05,4.254 9.05,4.253 9.051,4.254 9.05,4.253 9.05,4.254 9.051,4.253 6.704,3.151"
         id="path89" />
      <path
         fill="none"
         stroke-width="3"
         stroke-linecap="butt"
         stroke-opacity="1"
         stroke="#000000"
         stroke-linejoin="round"
         d="m 551.026,750.431 0.381,9.992 0.024,0.611 0.381,9.993 0.078,2.06 0.381,9.992 0.381,9.993 0.381,9.993 0.381,9.992 0.382,9.993 0.381,9.993 0.381,9.993 0.381,9.992 0.381,9.993 0.381,9.993 0.381,9.993 0.381,9.992 0.176,4.605 0.052,1.363 0.037,0.982 0.003,0.077 0.005,0.145 0.007,0.182 0.103,2.678 -2.763,1.708 -5.158,3.19"
         id="path90" />
      <path
         fill="none"
         stroke-width="3"
         stroke-linecap="butt"
         stroke-opacity="1"
         stroke="#000000"
         stroke-linejoin="round"
         d="m 1263.463,769.906 -9.944,1.062 -9.912,1.058 -0.649,0.07 -7.977,0.852 -1.076,0.114 -9.944,1.062 -9.943,1.062 -9.944,1.062 -9.943,1.062 -9.944,1.062 -9.943,1.062 -9.943,1.062 -1.398,0.149 -3.144,0.336 -2.401,0.256 -3.485,0.372 -9.944,1.062 -9.943,1.062 -9.944,1.062 -9.943,1.062 -9.943,1.062 -9.944,1.062 -9.943,1.062 -9.944,1.062 -9.943,1.062 -9.944,1.062 -9.943,1.062 -9.944,1.061 -9.943,1.062 -9.944,1.062 -9.943,1.062 -9.943,1.062 -9.944,1.062 -9.943,1.062 -9.944,1.062 -9.042,0.965 -6.476,0.692 -9.943,1.062 -3.653,0.39 -4.371,0.467 -9.943,1.062 -3.56,0.38 -3.66,0.391 -1.921,0.205 -3.279,0.35 -7.113,0.76 2.367,-3.665 2.611,-4.043 1.566,-2.425 0.176,-0.273 0.62,-0.959 0.534,-0.827 1.007,-1.559 0.056,-0.087 0.054,-0.083 0.016,-0.026 0.057,-0.088 0.278,-0.431 1.172,-1.813 4.901,-7.589 5.425,-8.4 5.426,-8.4 5.425,-8.401 5.426,-8.4 5.425,-8.4 5.426,-8.4 5.425,-8.401 5.425,-8.4 5.426,-8.4 5.425,-8.4 5.426,-8.401 5.425,-8.4 5.426,-8.4 5.425,-8.4 5.426,-8.401 5.425,-8.4 5.425,-8.4 5.426,-8.401 5.425,-8.4 5.426,-8.4 5.425,-8.4 5.426,-8.401 1.277,-1.978 2.357,-3.648 0.322,-0.499 2.421,-3.748 5.425,-8.401 5.426,-8.4 5.425,-8.4 5.426,-8.401 5.425,-8.4 5.425,-8.4 3.877,-6.003 2.287,-3.54 0.017,-0.026 4.832,6.384 6.035,7.974 1.595,2.107 6.035,7.973 6.036,7.974 6.035,7.973 6.035,7.974 6.035,7.973 2.246,2.967 1.93,2.551 1.769,2.336 1.671,2.208 6.035,7.974 4.371,5.774 3.675,4.856 0.597,0.789 3.567,4.713 6.036,7.973 6.035,7.974 6.035,7.973 6.035,7.974 6.035,7.973 6.036,7.974 6.035,7.973 6.035,7.974 6.035,7.973 6.035,7.974 6.036,7.973 6.035,7.974 6.035,7.973 6.035,7.974 6.035,7.973 6.035,7.974 2.579,3.407 0.509,0.671 3.765,4.975 0.306,0.404 6.035,7.973 3.336,4.408"
         id="path91" />
      <path
         fill="none"
         stroke-width="3"
         stroke-linecap="butt"
         stroke-opacity="1"
         stroke="#000000"
         stroke-linejoin="round"
         d="m 901.986,808.51 -7.69,6.392 -5.094,4.235"
         id="path92" />
      <path
         fill="none"
         stroke-width="3"
         stroke-linecap="butt"
         stroke-opacity="1"
         stroke="#000000"
         stroke-linejoin="round"
         d="m 900.97,819.51 -9.995,-0.317 -1.773,-0.056 9.942,-1.069 9.943,-1.068 2.307,-0.248 8.89,-0.955 9.943,-1.069 9.942,-1.068 9.943,-1.068 8.69,-0.934 9.942,-1.068 9.943,-1.069 4.612,-0.495 9.943,-1.069 9.943,-1.068 9.943,-1.069 9.942,-1.068 9.943,-1.068 9.943,-1.069 9.943,-1.068 9.943,-1.068 9.942,-1.069 9.943,-1.068 9.943,-1.068 9.943,-1.069 9.942,-1.068 9.943,-1.069 9.943,-1.068 9.943,-1.068 9.942,-1.069 3.704,-0.398 9.047,-0.972 9.943,-1.068 9.942,-1.068 9.943,-1.069 9.943,-1.068 9.943,-1.069 9.943,-1.068 2.088,-0.224 9.707,-1.043 9.943,-1.069 9.942,-1.068 9.943,-1.068 9.943,-1.069 2.356,-0.253"
         id="path93" />
      <path
         fill="none"
         stroke-width="3"
         stroke-linecap="butt"
         stroke-opacity="1"
         stroke="#000000"
         stroke-linejoin="round"
         d="m 1263.75,780.487 9.777,-2.098 5.129,-1.1 -8.995,-4.371 -6.198,-3.012"
         id="path94" />
      <path
         fill="none"
         stroke-width="3"
         stroke-linecap="butt"
         stroke-opacity="1"
         stroke="#000000"
         stroke-linejoin="round"
         d="m 1064.886,1028.89 -6.164,-7.874 -6.164,-7.874 -1.266,-1.617 -2.153,-2.75 -5.153,-6.582 -0.571,-0.729 -6.164,-7.874 -6.165,-7.874 -6.164,-7.874 -6.164,-7.875 -6.475,-8.27 -0.577,-0.736 -3.77,-4.816 -0.293,-0.374 -6.164,-7.875 -6.164,-7.874 -6.165,-7.874 -6.164,-7.874 -6.164,-7.874 -6.165,-7.874 -6.164,-7.874 -6.164,-7.874 -6.165,-7.874 -6.164,-7.874 -6.164,-7.874 -6.165,-7.874 -2.434,-3.11 -5.711,-7.294 -2.983,-3.811 -5.071,-6.478 -6.165,-7.874 -6.164,-7.874 -4.173,-5.331 9.942,-1.069 0.888,-0.096 3.292,-0.354 1.928,-0.207 3.675,-0.396 9.943,-1.069 9.943,-1.07 9.942,-1.069 9.943,-1.07 3.165,-0.34 4.382,-0.471 9.943,-1.07 3.689,-0.397 6.493,-0.698 9.943,-1.07 9.942,-1.069 9.943,-1.07 9.943,-1.069 9.942,-1.07 9.943,-1.069 9.942,-1.07 9.943,-1.069 9.943,-1.07 9.942,-1.069 9.943,-1.07 9.943,-1.069 9.942,-1.07 9.943,-1.069 9.943,-1.07 9.942,-1.069 9.191,-0.989 3.493,-0.376 2.407,-0.259 3.151,-0.339 9.942,-1.069 9.943,-1.07 9.943,-1.069 9.942,-1.07 9.943,-1.069 10.393,-1.118 1.077,-0.116 7.981,-0.858 0.649,-0.07 9.943,-1.07 9.942,-1.069 8.59,-0.924 -6.25,7.806 -6.25,7.807 -6.249,7.806 -6.25,7.807 -6.249,7.806 -6.25,7.807 -6.25,7.806 -6.249,7.807 -3.234,4.039 -0.695,0.869 -5.969,7.455 -0.36,0.45 -6.25,7.806 -6.249,7.807 -6.25,7.806 -5.314,6.639 -1.811,2.262 -4.72,5.895 -2.63,3.286 -6.25,7.807 -6.25,7.806 -6.249,7.807 -6.25,7.806 -6.25,7.807 -6.249,7.806 -6.25,7.807 -6.25,7.806 -6.249,7.807 -6.25,7.807 -6.249,7.806 -6.25,7.807 -6.25,7.806 -6.249,7.807 -1.856,2.318 -0.432,0.54 -3.884,4.851 -1.616,2.018 -6.249,7.807 -3.853,4.811"
         id="path95" />
      <path
         fill="none"
         stroke-width="3"
         stroke-linecap="butt"
         stroke-opacity="1"
         stroke="#000000"
         stroke-linejoin="round"
         d="m 1065.322,1042.884 v -0.139 l -0.159,-5.108 -0.164,-5.269 -0.021,-0.681 -0.01,-0.22 -0.015,-0.474 -0.066,-2.103"
         id="path96" />
      <path
         fill="none"
         stroke-width="3"
         stroke-linecap="butt"
         stroke-opacity="1"
         stroke="#000000"
         stroke-linejoin="round"
         d="m 1065.322,1042.884 0.473,-0.198 0.314,-0.132 5.107,-2.147 9.181,-3.858 2.735,-1.149 4.51,-1.896 9.203,-3.867 9.219,-3.875 5.261,-2.211 3.825,-1.607 9.219,-3.874 1.027,-0.432 9.219,-3.874 9.219,-3.875 9.219,-3.874 9.219,-3.874 0.951,-0.4 2.646,-1.112 4.765,-2.002 1.835,-0.771 9.219,-3.875 9.218,-3.874 9.219,-3.874 9.219,-3.875 0.737,-0.309 6.511,-2.737 8.535,-3.586 9.219,-3.875 1.45,-0.609 9.219,-3.874 9.219,-3.874 9.219,-3.875 9.219,-3.874 7.814,-3.284 9.219,-3.875 9.219,-3.874 5.508,-2.315 2.633,-1.106 5.176,-2.175 9.219,-3.875 9.219,-3.874 9.219,-3.874 4.972,-2.09 -8.496,5.274 -8.497,5.273 -8.496,5.274 -8.497,5.273 -8.496,5.274 -8.497,5.273 -8.496,5.274 -8.497,5.273 -8.496,5.274 -8.496,5.273 -8.497,5.274 -8.496,5.273 -8.497,5.274 -8.496,5.273 -8.497,5.274 -8.496,5.273 -8.497,5.274 -8.496,5.273 -8.497,5.274 -8.496,5.273 -6.604,4.099 -9.971,0.766 -9.97,0.766 -9.971,0.766 -9.97,0.765 -9.971,0.766 -9.971,0.766 -9.97,0.766 -9.971,0.766 -9.971,0.765 -9.97,0.766 -3.309,0.254"
         id="path97" />
      <path
         fill="none"
         stroke-width="3"
         stroke-linecap="butt"
         stroke-opacity="1"
         stroke="#000000"
         stroke-linejoin="round"
         d="m 1344.87,925.403 -6.308,-2.702 -3.995,-1.711 -0.208,-0.089"
         id="path98" />
      <path
         fill="none"
         stroke-width="3"
         stroke-linecap="butt"
         stroke-opacity="1"
         stroke="#000000"
         stroke-linejoin="round"
         d="m 1168.337,1034.972 -0.214,-5.978 -0.035,-0.965"
         id="path99" />
      <path
         fill="none"
         stroke-width="3"
         stroke-linecap="butt"
         stroke-opacity="1"
         stroke="#000000"
         stroke-linejoin="round"
         d="m 1087.642,1033.504 9.977,-0.679 9.977,-0.679 3.681,-0.25 9.977,-0.679 9.977,-0.679 9.977,-0.679 1.197,-0.082 9.977,-0.679 5.118,-0.348 3.615,-0.246 6.973,-0.475 6.025,-3.76 8.484,-5.295 7.88,-4.918 8.483,-5.294 8.483,-5.295 8.484,-5.295 8.483,-5.294 8.483,-5.295 8.484,-5.294 8.483,-5.295 8.483,-5.295 8.484,-5.294 8.483,-5.295 8.483,-5.295 8.484,-5.294 8.483,-5.295 6.305,-3.935"
         id="path100" />
      <path
         fill="none"
         stroke-width="3"
         stroke-linecap="butt"
         stroke-opacity="1"
         stroke="#000000"
         stroke-linejoin="round"
         d="m 490.061,288.219 -2.305,9.73 -2.305,9.731 -2.306,9.731 -2.305,9.73 -2.305,9.731 -2.305,9.731 -2.306,9.73 -2.305,9.731 -2.305,9.731 -2.305,9.73 -2.306,9.731 -2.305,9.731 -2.305,9.73 -2.305,9.731 -2.305,9.731 -2.306,9.73 -2.305,9.731 -2.305,9.731 -2.305,9.73 -2.306,9.731 -2.305,9.73 -2.305,9.731 -2.305,9.731 -2.306,9.731 -2.305,9.73 -2.305,9.731 -2.305,9.731 -0.792,3.339"
         id="path101" />
      <path
         fill="none"
         stroke-width="3"
         stroke-linecap="butt"
         stroke-opacity="1"
         stroke="#000000"
         stroke-linejoin="round"
         d="m 425.735,606.787 3.966,9.18 1.399,3.237 3.966,9.18 3.967,9.179 3.966,9.18 3.966,9.18 3.967,9.18 3.966,9.179 3.966,9.18 3.967,9.18 3.966,9.18 3.966,9.179 3.967,9.18 3.966,9.18 3.966,9.18 3.967,9.18 3.966,9.179 3.966,9.18 3.967,9.18 3.966,9.18 3.966,9.179 3.967,9.18 3.966,9.18 3.966,9.18 3.967,9.179 3.966,9.18 3.966,9.18 3.967,9.18 3.966,9.179 2.136,4.944 3.966,9.179 3.85,8.911"
         id="path102" />
      <path
         fill="none"
         stroke-width="3"
         stroke-linecap="butt"
         stroke-opacity="1"
         stroke="#000000"
         stroke-linejoin="round"
         d="m 735.413,61.716 -0.285,0.237 -7.685,6.398 -7.686,6.398 -7.685,6.398 -7.686,6.398 -7.685,6.398 -7.685,6.398 -7.686,6.398 -7.685,6.398 -7.686,6.398 -7.685,6.398 -7.685,6.398 -7.686,6.398 -7.685,6.398 -7.686,6.398 -7.685,6.398 -7.685,6.398 -7.686,6.398 -7.685,6.398 -7.686,6.398 -7.685,6.398 -7.685,6.398 -7.686,6.398 -7.685,6.398 -7.686,6.399 -7.685,6.398 -7.685,6.398 -6.88,5.727"
         id="path103" />
      <path
         fill="none"
         stroke-width="3"
         stroke-linecap="butt"
         stroke-opacity="1"
         stroke="#000000"
         stroke-linejoin="round"
         d="m 615.028,939.263 8.677,4.971 8.677,4.971 8.677,4.971 8.678,4.97 8.677,4.971 8.677,4.971 8.677,4.971 8.677,4.97 8.677,4.971 8.677,4.971 8.677,4.971 8.677,4.97 8.677,4.971 8.677,4.971 8.678,4.971 8.677,4.97 8.677,4.971 8.677,4.971 8.677,4.97 8.677,4.971 8.677,4.971 8.902,5.099"
         id="path104" />
      <path
         fill="none"
         stroke-width="3"
         stroke-linecap="butt"
         stroke-opacity="1"
         stroke="#000000"
         stroke-linejoin="round"
         d="m 1039.94,191.105 9.457,-3.25 9.458,-3.25 9.457,-3.25 9.297,-3.195 0.949,-0.326 9.457,-3.25 2.787,-0.957 1.877,-0.646 9.457,-3.249 9.457,-3.25 9.457,-3.25 1.627,-0.559 1.618,-0.556 5.198,-1.786 0.59,-0.203 9.458,-3.25 9.457,-3.25 9.457,-3.25 9.457,-3.25 9.457,-3.25 9.457,-3.25 9.458,-3.25 9.457,-3.25 9.457,-3.25 1.937,-0.666 3.081,-1.058 3.465,-1.191 4.987,-1.714 9.457,-3.25 9.457,-3.25 9.458,-3.249 3.856,-1.326 0.335,-0.115"
         id="path105" />
      <path
         fill="none"
         stroke-width="3"
         stroke-linecap="butt"
         stroke-opacity="1"
         stroke="#000000"
         stroke-linejoin="round"
         d="m 1076.537,1028.922 9.224,-3.865 9.223,-3.864 1.478,-0.619 9.223,-3.864 4.804,-2.013 9.223,-3.864 9.223,-3.865 9.224,-3.864 9.223,-3.864 9.223,-3.865 7.252,-3.038 9.194,-3.852 9.223,-3.864 9.223,-3.864 9.223,-3.865 9.224,-3.864 9.223,-3.864 8.219,-3.444 9.223,-3.864 9.223,-3.864 7.168,-3.004 9.224,-3.864 9.223,-3.864 9.223,-3.865 9.223,-3.864 9.224,-3.864 9.223,-3.864 9.223,-3.865 6.21,-2.601 9.223,-3.865 1.363,-0.571 -0.775,-1.712 -0.245,-0.54 -4.126,-9.109 -4.126,-9.109 -4.126,-9.109 -0.17,-0.377 -1.761,-3.887 -1.407,-3.106 -1.072,-2.367 -4.126,-9.109 -4.126,-9.109 -4.127,-9.109 -4.126,-9.109 -4.146,-9.155 -0.16,-0.352 -2.635,-5.818 -0.306,-0.675 -4.126,-9.109 -4.126,-9.109 -4.126,-9.11 -4.126,-9.109 -3.616,-7.982"
         id="path106" />
      <path
         fill="none"
         stroke-width="3"
         stroke-linecap="butt"
         stroke-opacity="1"
         stroke="#000000"
         stroke-linejoin="round"
         d="m 1346.835,385.652 -3.017,-9.535 -3.016,-9.534 -3.016,-9.534 -3.016,-9.534 -3.016,-9.535 -3.017,-9.534 -3.016,-9.534 -3.016,-9.535 -3.016,-9.534 -3.017,-9.534 -0.384,-1.214 -3.016,-9.534 -1.268,-4.009 -3.016,-9.534 -3.016,-9.534 -3.017,-9.535 -3.016,-9.534 -3.016,-9.534 -3.017,-9.534 -3.016,-9.535 -1.758,-5.558 -2.549,-8.055 -3.016,-9.535 -3.016,-9.534 -2,-6.323 -3.017,-9.534 -1.5,-4.744 -3.017,-9.534 -3.016,-9.535 -3.016,-9.534 -3.016,-9.534 -0.738,-2.333"
         id="path107" />
      <path
         fill="none"
         stroke-width="3"
         stroke-linecap="butt"
         stroke-opacity="1"
         stroke="#000000"
         stroke-linejoin="round"
         d="m 1361.74,398.18 8.763,-4.818 8.763,-4.818 8.762,-4.818 8.763,-4.818 8.763,-4.819 0.86,-0.473 1.69,-0.929 3.501,-1.925 3.016,-1.658 8.763,-4.818 8.762,-4.819 8.763,-4.818 8.763,-4.818 7.074,-3.89 0.431,-0.237 2.319,-1.275 1.017,-0.559 0.018,-0.01"
         id="path108" />
      <path
         fill="none"
         stroke-width="3"
         stroke-linecap="butt"
         stroke-opacity="1"
         stroke="#000000"
         stroke-linejoin="round"
         d="m 1482.461,626.622 -0.773,-9.97 -0.773,-9.97 -0.774,-9.97 -0.773,-9.97 -0.773,-9.97 -0.773,-9.97 -0.774,-9.97 -0.494,-6.379 -0.773,-9.97 -0.774,-9.97 -0.773,-9.97 -0.773,-9.97 -0.773,-9.97 -0.774,-9.97 -0.773,-9.97 -0.773,-9.97 -0.773,-9.97 -0.774,-9.97 -0.773,-9.971 -0.176,-2.269 -0.773,-9.97 -0.773,-9.97 -0.774,-9.97 -0.773,-9.97 -0.773,-9.97 -0.773,-9.97 -0.774,-9.97 -0.773,-9.97 -0.773,-9.97 -0.379,-4.888 v -0.035"
         id="path109" />
    </g>
  </g>
</svg>
